<svg width="16" height="16" viewBox="0 0 16 16" fill="none" xmlns="http://www.w3.org/2000/svg">
<path d="M1.33334 6.99967C1.33334 3.87006 3.87039 1.33301 7.00001 1.33301C9.83158 1.33301 12.1781 3.40985 12.5993 6.12336C13.8462 6.96112 14.6667 8.38458 14.6667 9.99967C14.6667 10.8475 14.4406 11.6426 14.0454 12.3278L14.6768 13.8011C14.9139 14.3542 14.3546 14.9135 13.8014 14.6765L12.3281 14.045C11.6429 14.4402 10.8478 14.6663 10 14.6663C8.38492 14.6663 6.96146 13.8459 6.12369 12.599C5.3908 12.4852 4.70434 12.231 4.09271 11.8647L2.14601 12.699C1.6001 12.933 1.04384 12.3901 1.26442 11.8386L2.07683 9.80761C1.60372 8.97988 1.33334 8.02135 1.33334 6.99967Z" fill="#DBE5FF"/>
<path d="M1.26442 11.8386L0.800179 11.653H0.800179L1.26442 11.8386ZM2.14601 12.699L2.34297 13.1586L2.14601 12.699ZM2.07683 9.80761L2.54107 9.9933C2.59772 9.85167 2.58662 9.69192 2.51093 9.55949L2.07683 9.80761ZM4.09271 11.8647L4.3496 11.4357C4.21199 11.3533 4.04319 11.3419 3.89575 11.4051L4.09271 11.8647ZM14.6768 13.8011L15.1364 13.6041L14.6768 13.8011ZM13.8014 14.6765L13.9984 14.2169L13.8014 14.6765ZM14.0454 12.3278L13.6123 12.078C13.5336 12.2144 13.5238 12.38 13.5858 12.5247L14.0454 12.3278ZM12.3281 14.045L12.5251 13.5855C12.3803 13.5234 12.2147 13.5332 12.0783 13.6119L12.3281 14.045ZM12.5993 6.12336L12.1052 6.20006L12.5993 6.12336ZM6.12369 12.599L6.20039 12.1049L6.12369 12.599ZM12.1667 6.99967C12.1667 9.85315 9.85348 12.1663 7.00001 12.1663V13.1663C10.4058 13.1663 13.1667 10.4054 13.1667 6.99967H12.1667ZM1.83334 6.99967C1.83334 4.1462 4.14654 1.83301 7.00001 1.83301V0.833008C3.59425 0.833008 0.83334 3.59392 0.83334 6.99967H1.83334ZM0.800179 11.653C0.414161 12.618 1.38762 13.568 2.34297 13.1586L1.94906 12.2394C1.81258 12.2979 1.67351 12.1622 1.72866 12.0243L0.800179 11.653ZM1.61259 9.62191L0.800179 11.653L1.72866 12.0243L2.54107 9.9933L1.61259 9.62191ZM2.51093 9.55949C2.07986 8.80532 1.83334 7.93204 1.83334 6.99967H0.83334C0.83334 8.11066 1.12758 9.15444 1.64274 10.0557L2.51093 9.55949ZM2.34297 13.1586L4.28967 12.3243L3.89575 11.4051L1.94906 12.2394L2.34297 13.1586ZM14.2172 13.9981C14.2765 14.1363 14.1367 14.2762 13.9984 14.2169L13.6045 15.136C14.5725 15.5509 15.5512 14.5721 15.1364 13.6041L14.2172 13.9981ZM13.5858 12.5247L14.2172 13.9981L15.1364 13.6041L14.505 12.1308L13.5858 12.5247ZM14.1667 9.99967C14.1667 10.7575 13.9648 11.4667 13.6123 12.078L14.4785 12.5776C14.9163 11.8184 15.1667 10.9375 15.1667 9.99967H14.1667ZM12.0783 13.6119C11.467 13.9645 10.7578 14.1663 10 14.1663V15.1663C10.9379 15.1663 11.8188 14.916 12.5779 14.4782L12.0783 13.6119ZM13.9984 14.2169L12.5251 13.5855L12.1311 14.5046L13.6045 15.136L13.9984 14.2169ZM12.3205 6.53838C13.435 7.28723 14.1667 8.5581 14.1667 9.99967H15.1667C15.1667 8.21107 14.2574 6.63502 12.8782 5.70834L12.3205 6.53838ZM7.00001 1.83301C9.58127 1.83301 11.7212 3.72641 12.1052 6.20006L13.0934 6.04666C12.6349 3.0933 10.0819 0.833008 7.00001 0.833008V1.83301ZM12.1052 6.20006C12.1457 6.46038 12.1667 6.72741 12.1667 6.99967H13.1667C13.1667 6.67586 13.1417 6.35756 13.0934 6.04666L12.1052 6.20006ZM10 14.1663C8.55843 14.1663 7.28756 13.4347 6.53871 12.3201L5.70867 12.8778C6.63535 14.2571 8.2114 15.1663 10 15.1663V14.1663ZM7.00001 12.1663C6.72774 12.1663 6.46072 12.1453 6.20039 12.1049L6.04699 13.0931C6.35789 13.1413 6.6762 13.1663 7.00001 13.1663V12.1663ZM6.20039 12.1049C5.53259 12.0012 4.90715 11.7697 4.3496 11.4357L3.83582 12.2937C4.50153 12.6923 5.249 12.9692 6.04699 13.0931L6.20039 12.1049Z" fill="#3151A1"/>
<path d="M1.26442 11.8386L0.800179 11.653H0.800179L1.26442 11.8386ZM2.14601 12.699L1.94906 12.2394H1.94906L2.14601 12.699ZM2.07683 9.80761L2.54107 9.9933C2.59772 9.85167 2.58662 9.69192 2.51093 9.55949L2.07683 9.80761ZM4.09271 11.8647L4.3496 11.4357C4.21199 11.3533 4.04319 11.3419 3.89575 11.4051L4.09271 11.8647ZM14.6768 13.8011L15.1364 13.6041V13.6041L14.6768 13.8011ZM13.8014 14.6765L13.6045 15.136H13.6045L13.8014 14.6765ZM14.0454 12.3278L13.6123 12.078C13.5336 12.2144 13.5238 12.38 13.5858 12.5247L14.0454 12.3278ZM12.3281 14.045L12.5251 13.5855C12.3803 13.5234 12.2147 13.5332 12.0783 13.6119L12.3281 14.045ZM12.5993 6.12336L12.1052 6.20006L12.5993 6.12336ZM6.12369 12.599L6.20039 12.1049L6.12369 12.599ZM4.66673 5.49967C4.39059 5.49967 4.16673 5.72353 4.16673 5.99967C4.16673 6.27582 4.39059 6.49967 4.66673 6.49967V5.49967ZM6.66673 6.49967C6.94287 6.49967 7.16673 6.27582 7.16673 5.99967C7.16673 5.72353 6.94287 5.49967 6.66673 5.49967V6.49967ZM4.66673 8.16634C4.39059 8.16634 4.16673 8.3902 4.16673 8.66634C4.16673 8.94248 4.39059 9.16634 4.66673 9.16634V8.16634ZM9.3334 9.16634C9.60954 9.16634 9.8334 8.94248 9.8334 8.66634C9.8334 8.3902 9.60954 8.16634 9.3334 8.16634V9.16634ZM12.1667 6.99967C12.1667 9.85315 9.85348 12.1663 7.00001 12.1663V13.1663C10.4058 13.1663 13.1667 10.4054 13.1667 6.99967H12.1667ZM1.83334 6.99967C1.83334 4.1462 4.14654 1.83301 7.00001 1.83301V0.833008C3.59425 0.833008 0.83334 3.59392 0.83334 6.99967H1.83334ZM0.800179 11.653C0.414161 12.618 1.38762 13.568 2.34297 13.1586L1.94906 12.2394C1.81258 12.2979 1.67351 12.1622 1.72866 12.0243L0.800179 11.653ZM1.61259 9.62191L0.800179 11.653L1.72866 12.0243L2.54107 9.9933L1.61259 9.62191ZM2.51093 9.55949C2.07986 8.80532 1.83334 7.93204 1.83334 6.99967H0.83334C0.83334 8.11066 1.12758 9.15444 1.64274 10.0557L2.51093 9.55949ZM2.34297 13.1586L4.28967 12.3243L3.89575 11.4051L1.94906 12.2394L2.34297 13.1586ZM14.2172 13.9981C14.2765 14.1363 14.1367 14.2762 13.9984 14.2169L13.6045 15.136C14.5725 15.5509 15.5512 14.5721 15.1364 13.6041L14.2172 13.9981ZM13.5858 12.5247L14.2172 13.9981L15.1364 13.6041L14.505 12.1308L13.5858 12.5247ZM14.1667 9.99967C14.1667 10.7575 13.9648 11.4667 13.6123 12.078L14.4785 12.5776C14.9163 11.8184 15.1667 10.9375 15.1667 9.99967H14.1667ZM12.0783 13.6119C11.467 13.9645 10.7578 14.1663 10 14.1663V15.1663C10.9379 15.1663 11.8188 14.916 12.5779 14.4782L12.0783 13.6119ZM13.9984 14.2169L12.5251 13.5855L12.1311 14.5046L13.6045 15.136L13.9984 14.2169ZM12.3205 6.53838C13.435 7.28723 14.1667 8.5581 14.1667 9.99967H15.1667C15.1667 8.21107 14.2574 6.63502 12.8782 5.70834L12.3205 6.53838ZM7.00001 1.83301C9.58127 1.83301 11.7212 3.72641 12.1052 6.20006L13.0934 6.04666C12.6349 3.0933 10.0819 0.833008 7.00001 0.833008V1.83301ZM12.1052 6.20006C12.1457 6.46038 12.1667 6.72741 12.1667 6.99967H13.1667C13.1667 6.67587 13.1417 6.35756 13.0934 6.04666L12.1052 6.20006ZM10 14.1663C8.55843 14.1663 7.28756 13.4347 6.53871 12.3201L5.70867 12.8778C6.63535 14.2571 8.2114 15.1663 10 15.1663V14.1663ZM7.00001 12.1663C6.72774 12.1663 6.46072 12.1453 6.20039 12.1049L6.04699 13.0931C6.35789 13.1413 6.6762 13.1663 7.00001 13.1663V12.1663ZM6.20039 12.1049C5.53259 12.0012 4.90715 11.7697 4.3496 11.4357L3.83582 12.2937C4.50153 12.6923 5.249 12.9692 6.04699 13.0931L6.20039 12.1049ZM4.66673 6.49967H6.66673V5.49967H4.66673V6.49967ZM4.66673 9.16634H9.3334V8.16634H4.66673V9.16634Z" fill="#3151A1"/>
</svg>
