<svg width="18" height="18" viewBox="0 0 18 18" fill="none" xmlns="http://www.w3.org/2000/svg">
<g clip-path="url(#clip0)">
<path d="M4.35174 15.9156L5.34562 15.8052L4.35174 15.9156ZM13.6483 15.9156L12.6544 15.8052L13.6483 15.9156ZM2.25 2.75C1.69772 2.75 1.25 3.19772 1.25 3.75C1.25 4.30228 1.69772 4.75 2.25 4.75V2.75ZM15.75 4.75C16.3023 4.75 16.75 4.30228 16.75 3.75C16.75 3.19772 16.3023 2.75 15.75 2.75V4.75ZM8.5 7.5C8.5 6.94772 8.05228 6.5 7.5 6.5C6.94772 6.5 6.5 6.94772 6.5 7.5H8.5ZM6.5 13.5C6.5 14.0523 6.94772 14.5 7.5 14.5C8.05228 14.5 8.5 14.0523 8.5 13.5H6.5ZM11.5 7.5C11.5 6.94772 11.0523 6.5 10.5 6.5C9.94772 6.5 9.5 6.94772 9.5 7.5H11.5ZM9.5 13.5C9.5 14.0523 9.94772 14.5 10.5 14.5C11.0523 14.5 11.5 14.0523 11.5 13.5H9.5ZM2.00612 3.86043L3.35786 16.0261L5.34562 15.8052L3.99388 3.63957L2.00612 3.86043ZM5.84256 18.25H12.1574V16.25H5.84256V18.25ZM14.6421 16.0261L15.9939 3.86043L14.0061 3.63957L12.6544 15.8052L14.6421 16.0261ZM3 2.75H2.25V4.75H3V2.75ZM15 4.75H15.75V2.75H15V4.75ZM6.5 7.5V13.5H8.5V7.5H6.5ZM9.5 7.5V13.5H11.5V7.5H9.5ZM3 4.75H6.75V2.75H3V4.75ZM7.75 3.75V2.25H5.75V3.75H7.75ZM8.25 1.75H9.75V-0.25H8.25V1.75ZM6.75 4.75H11.25V2.75H6.75V4.75ZM11.25 4.75H15V2.75H11.25V4.75ZM10.25 2.25V3.75H12.25V2.25H10.25ZM9.75 1.75C10.0261 1.75 10.25 1.97386 10.25 2.25H12.25C12.25 0.869288 11.1307 -0.25 9.75 -0.25V1.75ZM12.1574 18.25C13.4313 18.25 14.5015 17.2922 14.6421 16.0261L12.6544 15.8052C12.6262 16.0584 12.4122 16.25 12.1574 16.25V18.25ZM7.75 2.25C7.75 1.97386 7.97386 1.75 8.25 1.75V-0.25C6.86929 -0.25 5.75 0.869288 5.75 2.25H7.75ZM3.35786 16.0261C3.49853 17.2922 4.56869 18.25 5.84256 18.25V16.25C5.58779 16.25 5.37376 16.0584 5.34562 15.8052L3.35786 16.0261Z" fill="#6D778E"/>
</g>
<defs>
<clipPath id="clip0">
<rect width="18" height="18" fill="white"/>
</clipPath>
</defs>
</svg>
