<svg width="18" height="18" viewBox="0 0 18 18" fill="none" xmlns="http://www.w3.org/2000/svg">
<path d="M10.8964 6.39645C10.7012 6.59171 10.7012 6.90829 10.8964 7.10355C11.0917 7.29882 11.4083 7.29882 11.6036 7.10355L10.8964 6.39645ZM16.5 1.5H17C17 1.22386 16.7761 1 16.5 1V1.5ZM16 6.75C16 7.02614 16.2239 7.25 16.5 7.25C16.7761 7.25 17 7.02614 17 6.75H16ZM11.25 1C10.9739 1 10.75 1.22386 10.75 1.5C10.75 1.77614 10.9739 2 11.25 2V1ZM7.10355 11.6036C7.29882 11.4083 7.29882 11.0917 7.10355 10.8964C6.90829 10.7012 6.59171 10.7012 6.39645 10.8964L7.10355 11.6036ZM1.5 16.5H1C1 16.7761 1.22386 17 1.5 17V16.5ZM6.75 17C7.02614 17 7.25 16.7761 7.25 16.5C7.25 16.2239 7.02614 16 6.75 16V17ZM2 11.25C2 10.9739 1.77614 10.75 1.5 10.75C1.22386 10.75 1 10.9739 1 11.25H2ZM11.6036 7.10355L16.8536 1.85355L16.1464 1.14645L10.8964 6.39645L11.6036 7.10355ZM16 1.5V6.75H17V1.5H16ZM16.5 1H11.25V2H16.5V1ZM6.39645 10.8964L1.14645 16.1464L1.85355 16.8536L7.10355 11.6036L6.39645 10.8964ZM1.5 17H6.75V16H1.5V17ZM2 16.5V11.25H1V16.5H2Z" fill="#6D778E"/>
</svg>
