<svg width="16" height="17" viewBox="0 0 16 17" fill="none" xmlns="http://www.w3.org/2000/svg">
<g clip-path="url(#clip0)">
<path d="M14.6662 9.31343C15.2185 9.31343 15.6662 8.86571 15.6662 8.31343C15.6662 7.76114 15.2185 7.31343 14.6662 7.31343L14.6662 9.31343ZM1.3333 7.31343C0.781019 7.31343 0.333304 7.76114 0.333304 8.31343C0.333304 8.86571 0.78102 9.31343 1.3333 9.31343L1.3333 7.31343ZM8.99976 1.64697C8.99976 1.09469 8.55204 0.646973 7.99976 0.646973C7.44747 0.646973 6.99976 1.09469 6.99976 1.64697L8.99976 1.64697ZM6.99976 14.9799C6.99976 15.5322 7.44747 15.9799 7.99976 15.9799C8.55204 15.9799 8.99976 15.5322 8.99976 14.9799L6.99976 14.9799ZM14.6662 7.31343L1.3333 7.31343L1.3333 9.31343L14.6662 9.31343L14.6662 7.31343ZM6.99976 1.64697L6.99976 14.9799L8.99976 14.9799L8.99976 1.64697L6.99976 1.64697Z" fill="white"/>
</g>
<defs>
<clipPath id="clip0">
<rect width="11.3133" height="11.3133" transform="matrix(-0.707107 -0.707107 -0.707107 0.707107 15.9995 8.31348)" fill="white"/>
</clipPath>
</defs>
</svg>
