<svg width="14" height="14" viewBox="0 0 14 14" fill="none" xmlns="http://www.w3.org/2000/svg">
<path d="M13.5405 1.87361C13.931 1.48309 13.931 0.849921 13.5405 0.459397C13.15 0.0688728 12.5168 0.0688728 12.1263 0.459397L13.5405 1.87361ZM0.459641 12.1261C0.069117 12.5166 0.069117 13.1498 0.459641 13.5403C0.850166 13.9308 1.48333 13.9308 1.87385 13.5403L0.459641 12.1261ZM1.87385 0.459397C1.48333 0.0688728 0.850166 0.0688728 0.459641 0.459397C0.069117 0.849921 0.069117 1.48309 0.459641 1.87361L1.87385 0.459397ZM12.1263 13.5403C12.5168 13.9308 13.15 13.9308 13.5405 13.5403C13.931 13.1498 13.931 12.5166 13.5405 12.1261L12.1263 13.5403ZM12.1263 0.459397L0.459641 12.1261L1.87385 13.5403L13.5405 1.87361L12.1263 0.459397ZM0.459641 1.87361L12.1263 13.5403L13.5405 12.1261L1.87385 0.459397L0.459641 1.87361Z" fill="#3151A1"/>
</svg>
