<svg width="20" height="20" viewBox="0 0 20 20" fill="none" xmlns="http://www.w3.org/2000/svg">
<g clip-path="url(#clip0)">
<path d="M13.1992 10.4704C13.4754 10.4704 13.6992 10.2466 13.6992 9.97041C13.6992 9.69427 13.4754 9.47041 13.1992 9.47041L13.1992 10.4704ZM6.59958 9.47041C6.32344 9.47041 6.09958 9.69427 6.09958 9.97041C6.09958 10.2466 6.32344 10.4704 6.59958 10.4704L6.59958 9.47041ZM10.3994 6.67058C10.3994 6.39444 10.1756 6.17058 9.89941 6.17058C9.62327 6.17058 9.39941 6.39444 9.39941 6.67058L10.3994 6.67058ZM9.39941 13.2702C9.39941 13.5464 9.62327 13.7702 9.89941 13.7702C10.1756 13.7702 10.3994 13.5464 10.3994 13.2702L9.39941 13.2702ZM13.1992 9.47041L9.89941 9.47041L9.89941 10.4704L13.1992 10.4704L13.1992 9.47041ZM9.89941 9.47041L6.59958 9.47041L6.59958 10.4704L9.89941 10.4704L9.89941 9.47041ZM9.39941 6.67058L9.39941 9.97041L10.3994 9.97041L10.3994 6.67058L9.39941 6.67058ZM9.39941 9.97041L9.39941 13.2702L10.3994 13.2702L10.3994 9.97041L9.39941 9.97041ZM14.0831 14.1541C11.7725 16.4647 8.0263 16.4647 5.7157 14.1541L5.00859 14.8612C7.70972 17.5624 12.0891 17.5624 14.7902 14.8612L14.0831 14.1541ZM5.7157 14.1541C3.4051 11.8435 3.4051 8.0973 5.7157 5.7867L5.00859 5.07959C2.30747 7.78072 2.30747 12.1601 5.00859 14.8612L5.7157 14.1541ZM5.7157 5.7867C8.0263 3.47609 11.7725 3.47609 14.0831 5.7867L14.7902 5.07959C12.0891 2.37846 7.70972 2.37846 5.00859 5.07959L5.7157 5.7867ZM14.0831 5.7867C16.3937 8.0973 16.3937 11.8435 14.0831 14.1541L14.7902 14.8612C17.4914 12.1601 17.4914 7.78071 14.7902 5.07959L14.0831 5.7867Z" fill="#3151A1"/>
</g>
<defs>
<clipPath id="clip0">
<rect width="14" height="14" transform="matrix(-0.707107 -0.707107 -0.707107 0.707107 19.7988 9.97046)" fill="white"/>
</clipPath>
</defs>
</svg>
