<svg width="20" height="20" viewBox="0 0 20 20" fill="none" xmlns="http://www.w3.org/2000/svg">
<path d="M7.83398 10L7.12688 9.29289C6.73635 9.68342 6.73635 10.3166 7.12688 10.7071L7.83398 10ZM13.5411 5.70711C13.9316 5.31658 13.9316 4.68342 13.5411 4.29289C13.1506 3.90237 12.5174 3.90237 12.1269 4.29289L13.5411 5.70711ZM12.1269 15.7071C12.5174 16.0976 13.1506 16.0976 13.5411 15.7071C13.9316 15.3166 13.9316 14.6834 13.5411 14.2929L12.1269 15.7071ZM8.54109 10.7071L13.5411 5.70711L12.1269 4.29289L7.12688 9.29289L8.54109 10.7071ZM7.12688 10.7071L12.1269 15.7071L13.5411 14.2929L8.54109 9.29289L7.12688 10.7071Z" fill="#3151A1"/>
</svg>
