<svg width="20" height="20" viewBox="0 0 20 20" fill="none" xmlns="http://www.w3.org/2000/svg">
<path d="M7.5 3C7.5 2.44772 7.05228 2 6.5 2C5.94772 2 5.5 2.44772 5.5 3H7.5ZM14.5 3C14.5 2.44772 14.0523 2 13.5 2C12.9477 2 12.5 2.44772 12.5 3H14.5ZM4.4 5.4H6.5V3.4H4.4V5.4ZM6.5 5.4H13.5V3.4H6.5V5.4ZM13.5 5.4H15.6V3.4H13.5V5.4ZM15.6 16H4.4V18H15.6V16ZM4 15.6V7.9H2V15.6H4ZM4 7.9V5.8H2V7.9H4ZM16 5.8V7.9H18V5.8H16ZM16 7.9V15.6H18V7.9H16ZM3 8.9H17V6.9H3V8.9ZM7.5 4.4V3H5.5V4.4H7.5ZM14.5 4.4V3H12.5V4.4H14.5ZM4.4 16C4.17909 16 4 15.8209 4 15.6H2C2 16.9255 3.07452 18 4.4 18V16ZM15.6 18C16.9255 18 18 16.9255 18 15.6H16C16 15.8209 15.8209 16 15.6 16V18ZM15.6 5.4C15.8209 5.4 16 5.57909 16 5.8H18C18 4.47452 16.9255 3.4 15.6 3.4V5.4ZM4.4 3.4C3.07452 3.4 2 4.47452 2 5.8H4C4 5.57909 4.17909 5.4 4.4 5.4V3.4Z" fill="#A2A8B8"/>
</svg>
