<svg width="24" height="24" viewBox="0 0 24 24" fill="none" xmlns="http://www.w3.org/2000/svg">
<path d="M5.0297 20.5101L4.39561 21.2834L5.0297 20.5101ZM15.018 10C15.018 11.6526 13.671 13 12 13V15C14.7671 15 17.018 12.7656 17.018 10H15.018ZM12 13C10.329 13 8.98201 11.6526 8.98201 10H6.98201C6.98201 12.7657 9.23287 15 12 15V13ZM8.98201 10C8.98201 8.34737 10.329 7 12 7V5C9.23287 5 6.98201 7.23435 6.98201 10H8.98201ZM12 7C13.671 7 15.018 8.34737 15.018 10H17.018C17.018 7.23435 14.7671 5 12 5V7ZM2 12C2 6.47715 6.47715 2 12 2V0C5.37258 0 0 5.37258 0 12H2ZM12 2C17.5228 2 22 6.47715 22 12H24C24 5.37258 18.6274 0 12 0V2ZM9 18H15V16H9V18ZM15 18C16.5317 18 17.7966 19.1488 17.9777 20.6313L19.9629 20.3889C19.6609 17.9153 17.5549 16 15 16V18ZM22 12C22 15.1175 20.5746 17.9013 18.3362 19.7369L19.6044 21.2834C22.2862 19.0843 24 15.7419 24 12H22ZM18.3362 19.7369C16.6109 21.1517 14.4059 22 12 22V24C14.885 24 17.5346 22.9806 19.6044 21.2834L18.3362 19.7369ZM6.02233 20.6313C6.20336 19.1488 7.46827 18 9 18V16C6.44514 16 4.33913 17.9153 4.03707 20.3889L6.02233 20.6313ZM12 22C9.59415 22 7.38911 21.1517 5.66379 19.7369L4.39561 21.2834C6.46536 22.9806 9.11498 24 12 24V22ZM5.66379 19.7369C3.4254 17.9013 2 15.1175 2 12H0C0 15.7419 1.71384 19.0843 4.39561 21.2834L5.66379 19.7369Z" fill="#A2A8B8"/>
</svg>
