<svg width="122" height="118" viewBox="0 0 122 118" fill="none" xmlns="http://www.w3.org/2000/svg">
<rect width="122" height="118" rx="59" fill="#DBE5FF"/>
<mask id="mask0" mask-type="alpha" maskUnits="userSpaceOnUse" x="0" y="0" width="122" height="118">
<rect width="122" height="118" rx="59" fill="#DBE5FF"/>
</mask>
<g mask="url(#mask0)">
<path fill-rule="evenodd" clip-rule="evenodd" d="M93.0085 49.3108C93.0085 54.4812 97.2182 58.688 102.392 58.688C107.566 58.688 111.775 54.4812 111.775 49.3108C111.775 44.1405 107.566 39.9336 102.392 39.9336C97.2182 39.9336 93.0085 44.1401 93.0085 49.3108Z" fill="#3151A1"/>
<path fill-rule="evenodd" clip-rule="evenodd" d="M111.995 61.7998C111.973 61.7926 109.61 61.0675 109.61 61.0675C108.753 60.8063 107.823 60.9672 107.106 61.5033L102.392 65.0308L97.6776 61.5033C96.9609 60.9668 96.0302 60.8059 95.1749 61.0675C95.1749 61.0675 92.8111 61.7926 92.789 61.7998C88.9849 63.0674 86.4291 66.611 86.4291 70.6181V84.7945C86.4291 85.3414 86.5893 85.8759 86.8905 86.3329L91.6474 93.5682V112.569C91.6474 114.117 92.9026 115.371 94.4517 115.371H110.333C111.882 115.371 113.137 114.117 113.137 112.569V93.5682L117.894 86.3329C118.195 85.8755 118.355 85.3406 118.355 84.7945V70.6181C118.355 66.611 115.8 63.0674 111.995 61.7998Z" fill="#3151A1"/>
<path fill-rule="evenodd" clip-rule="evenodd" d="M19.752 58.688C24.9257 58.688 29.1354 54.4812 29.1354 49.3108C29.1354 44.1405 24.9257 39.9336 19.752 39.9336C14.5783 39.9336 10.3682 44.1401 10.3682 49.3108C10.3682 54.4816 14.5779 58.688 19.752 58.688Z" fill="#3151A1"/>
<mask id="mask1" mask-type="alpha" maskUnits="userSpaceOnUse" x="3" y="60" width="33" height="56">
<path fill-rule="evenodd" clip-rule="evenodd" d="M3.78925 60.9446H35.7149V115.371H3.78925V60.9446Z" fill="white"/>
</mask>
<g mask="url(#mask1)">
<path fill-rule="evenodd" clip-rule="evenodd" d="M29.355 61.7998C29.3333 61.7926 26.9691 61.0675 26.9691 61.0675C26.1126 60.8063 25.1835 60.9672 24.4663 61.5033L19.7519 65.0308L15.0376 61.5033C14.3208 60.9668 13.3901 60.8059 12.5348 61.0675C12.5348 61.0675 10.1706 61.7926 10.1489 61.7998C6.34481 63.0674 3.78906 66.611 3.78906 70.6181V84.7945C3.78906 85.3414 3.94887 85.8759 4.25002 86.3329L9.00736 93.5682V112.569C9.00736 114.117 10.2625 115.371 11.8113 115.371H27.6926C29.2413 115.371 30.4965 114.117 30.4965 112.569V93.5682L35.2539 86.3329C35.5546 85.8755 35.7148 85.3406 35.7148 84.7945V70.6181C35.7148 66.611 33.1587 63.0674 29.355 61.7998Z" fill="#3151A1"/>
</g>
<path fill-rule="evenodd" clip-rule="evenodd" d="M73.1751 36.095C73.1751 29.4259 67.7456 24 61.0721 24C54.3987 24 48.9692 29.4259 48.9692 36.095C48.9692 42.7645 54.3987 48.19 61.0721 48.19C67.7456 48.19 73.1751 42.7645 73.1751 36.095Z" fill="#3151A1"/>
<path fill-rule="evenodd" clip-rule="evenodd" d="M74.3656 54.0515L74.3456 54.0451L70.8912 52.9857C70.3463 52.8184 69.7641 53.1065 69.5681 53.6438L62.3044 73.5607C61.8852 74.7096 60.2594 74.7096 59.8402 73.5607L52.5765 53.6438C52.4183 53.21 52.0088 52.938 51.5695 52.938C51.4655 52.938 47.8031 54.0435 47.8031 54.0435C43.3903 55.5129 40.4423 59.601 40.4423 64.2236V85.2926C40.4423 85.5017 40.5037 85.7063 40.6185 85.8813L48.1978 97.4073V126.572C48.1978 127.164 48.6781 127.644 49.2707 127.644H72.8739C73.4666 127.644 73.9468 127.164 73.9468 126.572V97.4073L81.5261 85.8813C81.641 85.7063 81.7024 85.5017 81.7024 85.2926V64.1683C81.702 59.5657 78.7423 55.4844 74.3656 54.0515Z" fill="#3151A1"/>
<path fill-rule="evenodd" clip-rule="evenodd" d="M63.9101 53.6323C63.6101 53.3056 63.1712 53.1411 62.7271 53.1411H59.4165C58.9728 53.1411 58.534 53.3056 58.2336 53.6323C57.769 54.1383 57.7016 54.869 58.0312 55.44L59.8008 58.106L58.9724 65.0901L60.6038 69.427C60.7629 69.8631 61.38 69.8631 61.5394 69.427L63.1708 65.0901L62.3425 58.106L64.112 55.44C64.4421 54.869 64.3746 54.1383 63.9101 53.6323Z" fill="#3151A1"/>
</g>
</svg>
