<svg width="13" height="7" viewBox="0 0 13 7" fill="none" xmlns="http://www.w3.org/2000/svg">
<path d="M0.792893 5.29289C0.402369 5.68342 0.402369 6.31658 0.792893 6.70711C1.18342 7.09763 1.81658 7.09763 2.20711 6.70711L0.792893 5.29289ZM6.5 1L7.20711 0.292893C6.81658 -0.097631 6.18342 -0.097631 5.79289 0.292893L6.5 1ZM10.7929 6.70711C11.1834 7.09763 11.8166 7.09763 12.2071 6.70711C12.5976 6.31658 12.5976 5.68342 12.2071 5.29289L10.7929 6.70711ZM2.20711 6.70711L7.20711 1.70711L5.79289 0.292893L0.792893 5.29289L2.20711 6.70711ZM5.79289 1.70711L10.7929 6.70711L12.2071 5.29289L7.20711 0.292893L5.79289 1.70711Z" fill="#3151A1" fill-opacity="0.8"/>
</svg>
