<svg width="24" height="24" viewBox="0 0 24 24" fill="none" xmlns="http://www.w3.org/2000/svg">
<path d="M12.0001 3C8.68639 3 6.0001 5.68629 6.0001 9V10.1036C6.0001 11.9751 5.34397 13.7874 4.14587 15.2251L3.73374 15.7196C2.64819 17.0223 3.57451 19 5.27018 19H18.73C20.4257 19 21.352 17.0223 20.2665 15.7196L19.8543 15.2251C18.6562 13.7874 18.0001 11.9751 18.0001 10.1036V9C18.0001 5.68629 15.3138 3 12.0001 3ZM12.0001 3V1M9.0001 19V20C9.0001 21.6569 10.3432 23 12.0001 23C13.657 23 15.0001 21.6569 15.0001 20V19" stroke="#A2A8B8" stroke-width="2" stroke-linecap="round"/>
</svg>
