<svg width="24" height="24" viewBox="0 0 24 24" fill="none" xmlns="http://www.w3.org/2000/svg">
<circle cx="12" cy="12" r="12" fill="#DBE5FF"/>
<path d="M17.5088 8.56582L13.0579 11.3404C12.4103 11.7441 11.5894 11.7441 10.9418 11.3404L6.49091 8.56582M17.5088 8.56582C17.3419 8.18111 16.9948 7.91663 16.5936 7.91663H7.40609C7.00491 7.91663 6.65778 8.18111 6.49091 8.56582M17.5088 8.56582C17.5764 8.72176 17.6144 8.89745 17.6144 9.08329V14.9166C17.6144 15.561 17.1574 16.0833 16.5936 16.0833H7.40609C6.8423 16.0833 6.38525 15.561 6.38525 14.9166V9.08329C6.38525 8.89745 6.42327 8.72176 6.49091 8.56582" stroke="#3151A1" stroke-linecap="round"/>
</svg>
