<svg width="24" height="24" viewBox="0 0 24 24" fill="none" xmlns="http://www.w3.org/2000/svg">
<circle cx="12" cy="12" r="12" fill="#DBE5FF"/>
<path d="M6.22395 7.33166C6.77054 12.8448 11.155 17.2293 16.6681 17.7759C17.3093 17.8394 17.8332 17.311 17.8332 16.6666V14.5908C17.8332 14.0887 17.5118 13.6428 17.0354 13.484L15.0172 12.8113C14.598 12.6716 14.1358 12.7807 13.8233 13.0931L13.5003 13.4162C13.3056 13.6108 13.0006 13.644 12.7734 13.4886C11.7264 12.7724 11.1392 12.1864 10.4992 11.2228C10.3494 10.9972 10.3852 10.698 10.5766 10.5065L10.9067 10.1765C11.2191 9.86401 11.3282 9.40181 11.1885 8.98259L10.5157 6.96436C10.3569 6.48796 9.91112 6.16663 9.40895 6.16663H7.33317C6.68884 6.16663 6.16038 6.69047 6.22395 7.33166Z" stroke="#3151A1" stroke-linecap="round"/>
</svg>
