<svg width="20" height="14" viewBox="0 0 20 14" fill="none" xmlns="http://www.w3.org/2000/svg">
<path d="M18.3342 3.63053H17.4439C17.0773 3.63053 16.7781 3.92526 16.7781 4.28632V4.44105L16.4264 4.40421L15.9177 3.02632C15.4763 1.81053 14.3017 1 12.9925 1H6.85037C5.54115 1 4.36658 1.81053 3.91771 3.02632L3.4015 4.41895L3.22943 4.44105V4.28632C3.22943 3.92526 2.92269 3.63053 2.55611 3.63053H1.66584C1.29925 3.63053 1 3.92526 1 4.28632V4.89789C1 5.25895 1.29925 5.55368 1.66584 5.55368H2.54115L1.54613 6.77684C1.36658 6.99789 1.26185 7.27789 1.26185 7.55789V10.4389C1.26185 11.1021 1.8005 11.64 2.46633 11.6768V12.7379C2.46633 13.2095 2.85536 13.6 3.33416 13.6H4.65835C5.14464 13.6 5.53367 13.2095 5.53367 12.7379V11.6842H14.3392V12.7379C14.3392 13.2095 14.7357 13.6 15.2145 13.6H16.5387C17.0175 13.6 17.414 13.2095 17.414 12.7379V11.6768C18.0873 11.6547 18.6334 11.1095 18.6334 10.4389V7.55789C18.6334 7.27789 18.5287 6.99789 18.3491 6.77684L17.3017 5.52421C17.3466 5.53895 17.3915 5.55368 17.4439 5.55368H18.3342C18.7007 5.55368 19 5.25895 19 4.89789V4.28632C19 3.92526 18.7007 3.63053 18.3342 3.63053ZM14.5037 8.21368C14.5037 8.07368 14.6085 7.95579 14.7431 7.93368L16.4414 7.65368C16.4564 7.65368 16.4788 7.64632 16.4938 7.64632C16.5761 7.64632 16.6434 7.69053 16.6733 7.72C16.7107 7.74947 16.7781 7.81579 16.7781 7.92632V8.21368C16.7781 8.36842 16.6434 8.49368 16.4938 8.49368H14.788C14.6309 8.49368 14.5037 8.36842 14.5037 8.21368ZM4.03741 4.86105L4.62095 3.27684C4.95761 2.35579 5.85536 1.73684 6.85037 1.73684H12.9925C13.9875 1.73684 14.8778 2.35579 15.2145 3.27684L15.798 4.86105C15.8429 4.97895 15.8279 5.10421 15.7531 5.20737C15.6858 5.31053 15.5661 5.36947 15.4389 5.36947H4.39651C4.26933 5.36947 4.15711 5.31053 4.08229 5.20737C4.01496 5.10421 3.99252 4.97895 4.03741 4.86105ZM5.21197 8.49368H3.50623C3.35661 8.49368 3.22943 8.36842 3.22943 8.21368V7.92632C3.22943 7.81579 3.28928 7.74947 3.32668 7.72C3.35661 7.69053 3.42394 7.64632 3.50623 7.64632C3.5212 7.64632 3.54364 7.65368 3.5586 7.65368L5.25686 7.93368C5.39152 7.95579 5.49626 8.07368 5.49626 8.21368C5.49626 8.36842 5.36908 8.49368 5.21197 8.49368ZM11.1147 9.66526H8.72818C8.2419 9.66526 7.85287 9.28211 7.85287 8.81053C7.85287 8.26526 8.30923 7.81579 8.86284 7.81579H10.9726C11.5262 7.81579 11.9825 8.26526 11.9825 8.81053C11.9825 9.28211 11.5935 9.66526 11.1147 9.66526Z" fill="#3151A1"/>
<path d="M8.62338 8.65579C8.4962 8.61158 8.44383 8.5821 8.44383 8.52315C8.44383 8.47158 8.48872 8.43473 8.58598 8.43473C8.68324 8.43473 8.75057 8.46421 8.78797 8.47894L8.83286 8.30947C8.77301 8.28736 8.6982 8.26526 8.58598 8.26526C8.36154 8.26526 8.21939 8.39052 8.21939 8.55263C8.21939 8.69263 8.32413 8.77368 8.48124 8.83263C8.59346 8.87684 8.64583 8.90631 8.64583 8.96526C8.64583 9.02421 8.59346 9.06842 8.4962 9.06842C8.40643 9.06842 8.31665 9.03894 8.2568 9.00947L8.21191 9.18631C8.26428 9.21579 8.3765 9.24526 8.48124 9.24526C8.74309 9.24526 8.87027 9.11263 8.87027 8.95052C8.87775 8.80315 8.79545 8.71473 8.62338 8.65579Z" fill="#3151A1"/>
<path d="M9.44642 8.25049C9.16213 8.25049 8.9751 8.46417 8.9751 8.75154C8.9751 9.0168 9.14717 9.23049 9.43146 9.23049C9.70827 9.23049 9.90278 9.04628 9.90278 8.72944C9.90278 8.47154 9.73819 8.25049 9.44642 8.25049ZM9.43894 9.06101C9.29679 9.06101 9.20702 8.92838 9.20702 8.74417C9.20702 8.55996 9.29679 8.42733 9.43894 8.42733C9.58856 8.42733 9.67086 8.56733 9.67086 8.7368C9.67086 8.92101 9.58856 9.06101 9.43894 9.06101Z" fill="#3151A1"/>
<path d="M10.2619 8.27246H10.0449V9.21562H10.6434V9.03878H10.2619V8.27246Z" fill="#3151A1"/>
<path d="M11.0701 8.26526C10.9579 8.26526 10.8531 8.27263 10.7783 8.28V9.20842C10.8307 9.21579 10.913 9.22315 11.0252 9.22315C11.2122 9.22315 11.3619 9.18631 11.4666 9.10526C11.5564 9.02421 11.6237 8.89894 11.6237 8.7221C11.6237 8.55263 11.5639 8.43473 11.4666 8.36105C11.3693 8.29473 11.2496 8.26526 11.0701 8.26526ZM11.0701 9.06105C11.0402 9.06105 11.0102 9.06105 10.9953 9.05368V8.43473C11.0102 8.42736 11.0476 8.42736 11.0925 8.42736C11.2796 8.42736 11.3993 8.53052 11.3918 8.72947C11.3918 8.95052 11.2646 9.06105 11.0701 9.06105Z" fill="#3151A1"/>
</svg>
