<svg width="32" height="32" viewBox="0 0 32 32" fill="none" xmlns="http://www.w3.org/2000/svg">
<circle cx="16" cy="16" r="15" fill="#DBE5FF" stroke="white" stroke-width="2"/>
<path d="M22.3905 11.057L23.0976 10.3499V10.3499L22.3905 11.057ZM20.9428 9.60927L20.2357 10.3164V10.3164L20.9428 9.60927ZM19.0572 9.60927L18.3501 8.90217L18.3501 8.90217L19.0572 9.60927ZM9.52857 19.1379L10.2357 19.845L10.2357 19.845L9.52857 19.1379ZM20.6666 14.6665L21.3738 15.3736V15.3736L20.6666 14.6665ZM22.3905 12.9426L21.6834 12.2355L21.6834 12.2355L22.3905 12.9426ZM20 23.6665C20.5523 23.6665 21 23.2188 21 22.6665C21 22.1142 20.5523 21.6665 20 21.6665V23.6665ZM8.33331 19.6093V21.9998H10.3333V19.6093H8.33331ZM9.99998 23.6665H12.6666V21.6665H9.99998V23.6665ZM23.0976 10.3499L21.6499 8.90217L20.2357 10.3164L21.6834 11.7641L23.0976 10.3499ZM18.3501 8.90217L16.6262 10.626L18.0404 12.0402L19.7643 10.3164L18.3501 8.90217ZM16.6262 10.626L8.82147 18.4308L10.2357 19.845L18.0404 12.0402L16.6262 10.626ZM13.3738 23.3736L21.3738 15.3736L19.9595 13.9594L11.9595 21.9594L13.3738 23.3736ZM21.3738 15.3736L23.0976 13.6497L21.6834 12.2355L19.9595 13.9594L21.3738 15.3736ZM16.6262 12.0402L19.9595 15.3736L21.3738 13.9594L18.0404 10.626L16.6262 12.0402ZM12.6666 23.6665H20V21.6665H12.6666V23.6665ZM21.6834 11.7641C21.8136 11.8943 21.8136 12.1053 21.6834 12.2355L23.0976 13.6497C24.0088 12.7385 24.0088 11.2611 23.0976 10.3499L21.6834 11.7641ZM8.33331 21.9998C8.33331 22.9203 9.0795 23.6665 9.99998 23.6665V21.6665C10.1841 21.6665 10.3333 21.8157 10.3333 21.9998H8.33331ZM10.3333 19.6093C10.3333 19.6977 10.2982 19.7825 10.2357 19.845L8.82147 18.4308C8.50891 18.7433 8.33331 19.1672 8.33331 19.6093H10.3333ZM21.6499 8.90217C20.7387 7.99094 19.2613 7.99095 18.3501 8.90217L19.7643 10.3164C19.8945 10.1862 20.1055 10.1862 20.2357 10.3164L21.6499 8.90217Z" fill="#3151A1"/>
</svg>
