<svg width="24" height="24" viewBox="0 0 24 24" fill="none" xmlns="http://www.w3.org/2000/svg">
<rect opacity="0.01" width="24" height="24" fill="#CDEBFF"/>
<path d="M22.793 6.11291L12.9577 11.4776C12.3607 11.8032 11.6392 11.8032 11.0423 11.4776L1.207 6.11291M22.793 6.11291C22.4661 5.45339 21.786 5 21 5H3C2.21401 5 1.53392 5.45339 1.207 6.11291M22.793 6.11291C22.9255 6.38023 23 6.68142 23 7V17C23 18.1046 22.1046 19 21 19H3C1.89543 19 1 18.1046 1 17V7C1 6.68142 1.07449 6.38023 1.207 6.11291" stroke="#A2A8B8" stroke-width="2" stroke-linecap="round"/>
</svg>
