<svg width="16" height="16" viewBox="0 0 16 16" fill="none" xmlns="http://www.w3.org/2000/svg">
<path d="M2.25 2.53125C3.77083 1.01042 5.60417 0.25 7.75 0.25C9.89583 0.25 11.7188 1.01042 13.2188 2.53125C14.7396 4.03125 15.5 5.85417 15.5 8C15.5 10.1458 14.7396 11.9792 13.2188 13.5C11.7188 15 9.89583 15.75 7.75 15.75C5.60417 15.75 3.77083 15 2.25 13.5C0.75 11.9792 0 10.1458 0 8C0 5.85417 0.75 4.03125 2.25 2.53125ZM3.3125 12.4375C4.54167 13.6458 6.02083 14.25 7.75 14.25C9.47917 14.25 10.9479 13.6458 12.1562 12.4375C13.3854 11.2083 14 9.72917 14 8C14 6.27083 13.3854 4.80208 12.1562 3.59375C10.9479 2.36458 9.47917 1.75 7.75 1.75C6.02083 1.75 4.54167 2.36458 3.3125 3.59375C2.10417 4.80208 1.5 6.27083 1.5 8C1.5 9.72917 2.10417 11.2083 3.3125 12.4375ZM5.9375 7.21875C5.75 7.40625 5.52083 7.5 5.25 7.5C4.97917 7.5 4.73958 7.40625 4.53125 7.21875C4.34375 7.01042 4.25 6.77083 4.25 6.5C4.25 6.22917 4.34375 6 4.53125 5.8125C4.73958 5.60417 4.97917 5.5 5.25 5.5C5.52083 5.5 5.75 5.60417 5.9375 5.8125C6.14583 6 6.25 6.22917 6.25 6.5C6.25 6.77083 6.14583 7.01042 5.9375 7.21875ZM10.9375 7.21875C10.75 7.40625 10.5208 7.5 10.25 7.5C9.97917 7.5 9.73958 7.40625 9.53125 7.21875C9.34375 7.01042 9.25 6.77083 9.25 6.5C9.25 6.22917 9.34375 6 9.53125 5.8125C9.73958 5.60417 9.97917 5.5 10.25 5.5C10.5208 5.5 10.75 5.60417 10.9375 5.8125C11.1458 6 11.25 6.22917 11.25 6.5C11.25 6.77083 11.1458 7.01042 10.9375 7.21875ZM10.375 9.78125C10.5 9.61458 10.6667 9.52083 10.875 9.5C11.0833 9.47917 11.2604 9.54167 11.4062 9.6875C11.5729 9.8125 11.6667 9.97917 11.6875 10.1875C11.7083 10.3958 11.6562 10.5729 11.5312 10.7188C10.5521 11.9062 9.29167 12.5 7.75 12.5C6.20833 12.5 4.94792 11.9062 3.96875 10.7188C3.84375 10.5729 3.79167 10.3958 3.8125 10.1875C3.83333 9.97917 3.91667 9.8125 4.0625 9.6875C4.22917 9.54167 4.41667 9.47917 4.625 9.5C4.83333 9.52083 5 9.61458 5.125 9.78125C5.8125 10.5938 6.6875 11 7.75 11C8.8125 11 9.6875 10.5938 10.375 9.78125Z" fill="#6D778E"/>
</svg>
