<svg width="24" height="24" viewBox="0 0 24 24" fill="none" xmlns="http://www.w3.org/2000/svg">
<path d="M22.3257 11.0497C22.7739 11.6143 22.7739 12.3857 22.3257 12.9503C20.9829 14.642 17.6107 18 11.9999 18C6.38916 18 3.01702 14.642 1.67418 12.9503C1.22596 12.3857 1.22596 11.6143 1.67418 11.0497C3.01702 9.35796 6.38916 6 11.9999 6C17.6107 6 20.9829 9.35796 22.3257 11.0497Z" stroke="#A2A8B8" stroke-width="2" stroke-linecap="round"/>
<path d="M14.9999 12C14.9999 13.6569 13.6568 15 11.9999 15C10.3431 15 8.99994 13.6569 8.99994 12C8.99994 10.3431 10.3431 9 11.9999 9C13.6568 9 14.9999 10.3431 14.9999 12Z" stroke="#A2A8B8" stroke-width="2" stroke-linecap="round"/>
</svg>
