<svg width="24" height="24" viewBox="0 0 24 24" fill="none" xmlns="http://www.w3.org/2000/svg">
<path d="M22.3257 11.0497C22.7739 11.6143 22.7739 12.3857 22.3257 12.9503C20.9829 14.642 17.6107 18 11.9999 18C6.38916 18 3.01702 14.642 1.67418 12.9503C1.22596 12.3857 1.22596 11.6143 1.67418 11.0497C3.01702 9.35796 6.38916 6 11.9999 6C17.6107 6 20.9829 9.35796 22.3257 11.0497Z" stroke="#A2A8B8" stroke-width="2" stroke-linecap="round"/>
<path d="M14.9999 12C14.9999 13.6569 13.6568 15 11.9999 15C10.3431 15 8.99994 13.6569 8.99994 12C8.99994 10.3431 10.3431 9 11.9999 9C13.6568 9 14.9999 10.3431 14.9999 12Z" stroke="#A2A8B8" stroke-width="2" stroke-linecap="round"/>
<path fill-rule="evenodd" clip-rule="evenodd" d="M19.146 6.95294C17.3217 5.86129 14.9483 5 12.0001 5C5.951 5 2.32154 8.62583 0.891057 10.428C0.153827 11.3567 0.153827 12.6433 0.891057 13.572C1.71808 14.6139 3.2801 16.2654 5.61977 17.4733L7.39331 16.0939C4.90848 15.0566 3.28193 13.3672 2.45754 12.3286C2.29833 12.128 2.29833 11.872 2.45754 11.6714C3.71274 10.0901 6.82757 7 12.0001 7C14.1659 7 15.971 7.54178 17.4298 8.28772L19.146 6.95294ZM20.8583 8.15486L19.2322 9.41957C20.2896 10.2183 21.0559 11.0583 21.5426 11.6714C21.7018 11.872 21.7018 12.128 21.5426 12.3286C20.2874 13.9099 17.1726 17 12.0001 17C11.2007 17 10.4506 16.9262 9.74878 16.7956L7.746 18.3533C9.00111 18.7519 10.4178 19 12.0001 19C18.0491 19 21.6786 15.3742 23.1091 13.572C23.8463 12.6433 23.8463 11.3567 23.1091 10.428C22.6194 9.81108 21.8721 8.98053 20.8583 8.15486ZM10.9505 15.8609C11.285 15.9516 11.6369 16 12.0001 16C14.2092 16 16.0001 14.2091 16.0001 12C16.0001 11.9779 15.9999 11.9559 15.9995 11.9339L10.9505 15.8609ZM15.3894 9.87473C14.6817 8.74855 13.4283 8 12.0001 8C9.79093 8 8.00007 9.79086 8.00007 12C8.00007 13.0709 8.42094 14.0436 9.10631 14.7616L10.7013 13.521C10.2721 13.1542 10.0001 12.6089 10.0001 12C10.0001 10.8954 10.8955 10 12.0001 10C12.787 10 13.4678 10.4545 13.7943 11.1154L15.3894 9.87473Z" fill="#A2A8B8"/>
<path d="M3 19L21 5" stroke="#A2A8B8" stroke-width="2" stroke-linecap="round"/>
</svg>
