<svg width="598" height="368" viewBox="0 0 598 368" fill="none" xmlns="http://www.w3.org/2000/svg">
<g clip-path="url(#clip0)">
<g filter="url(#filter0_d)">
<path d="M286.6 104.528C315.442 104.528 338.824 81.1286 338.824 52.264C338.824 23.3994 315.442 0 286.6 0C257.758 0 234.376 23.3994 234.376 52.264C234.376 81.1286 257.758 104.528 286.6 104.528Z" fill="white"/>
</g>
<path d="M449.334 355.487H137.11C136.839 355.487 136.617 355.265 136.617 354.993V146.224C136.617 138.355 143.053 131.914 150.916 131.914H435.528C443.39 131.914 449.827 138.355 449.827 146.224V354.998C449.827 355.265 449.605 355.487 449.334 355.487Z" fill="#3151A1"/>
<path d="M423.572 330.742H161.17C156.011 330.742 151.823 326.556 151.823 321.388V157.266C151.823 152.103 156.006 147.912 161.17 147.912H423.572C428.731 147.912 432.919 152.098 432.919 157.266V321.393C432.919 326.556 428.736 330.742 423.572 330.742Z" fill="white"/>
<path d="M444.357 368H138.639C131.3 368 125.04 362.679 123.852 355.433L121.672 342.14H263.369L268.789 349.929H307.942L313.802 342.14H463.07L461.176 353.7C459.83 361.943 452.707 368 444.357 368Z" fill="url(#paint0_linear)"/>
<path d="M188.732 330.742H160.701C155.799 330.742 151.823 326.763 151.823 321.857V156.797C151.823 151.89 155.799 147.912 160.701 147.912H188.732V330.742Z" fill="white"/>
<path d="M424.04 330.742H188.732V147.912H424.04C428.943 147.912 432.919 151.89 432.919 156.797V321.857C432.919 326.768 428.943 330.742 424.04 330.742Z" fill="#E9F5FF"/>
<path d="M266.604 185.219H202.296C201.043 185.219 200.027 184.202 200.027 182.949V161.215C200.027 159.961 201.043 158.944 202.296 158.944H266.604C267.857 158.944 268.873 159.961 268.873 161.215V182.949C268.878 184.202 267.862 185.219 266.604 185.219Z" fill="url(#paint1_linear)"/>
<path d="M266.737 185.219H202.429C201.176 185.219 200.16 184.202 200.16 182.949V161.215C200.16 159.961 201.176 158.944 202.429 158.944H266.737C267.99 158.944 269.006 159.961 269.006 161.215V182.949C269.006 184.202 267.99 185.219 266.737 185.219Z" fill="#FCFDFF"/>
<path d="M263.201 166.255H225.764V167.859H263.201V166.255Z" fill="#A4D1FF"/>
<path d="M263.201 169.971H248.039V171.576H263.201V169.971Z" fill="#A4D1FF"/>
<path d="M211.51 179.296C215.596 179.296 218.908 176.065 218.908 172.079C218.908 168.094 215.596 164.863 211.51 164.863C207.424 164.863 204.111 168.094 204.111 172.079C204.111 176.065 207.424 179.296 211.51 179.296Z" fill="#3151A1"/>
<path d="M341.699 185.219H277.391C276.138 185.219 275.122 184.202 275.122 182.949V161.215C275.122 159.961 276.138 158.944 277.391 158.944H341.699C342.952 158.944 343.968 159.961 343.968 161.215V182.949C343.968 184.202 342.952 185.219 341.699 185.219Z" fill="url(#paint2_linear)"/>
<path d="M341.828 185.219H277.52C276.267 185.219 275.251 184.202 275.251 182.949V161.215C275.251 159.961 276.267 158.944 277.52 158.944H341.828C343.081 158.944 344.097 159.961 344.097 161.215V182.949C344.097 184.202 343.081 185.219 341.828 185.219Z" fill="#FCFDFF"/>
<path d="M338.291 166.255H300.855V167.859H338.291V166.255Z" fill="#A4D1FF"/>
<path d="M338.291 169.971H323.129V171.576H338.291V169.971Z" fill="#A4D1FF"/>
<path d="M286.6 179.296C290.686 179.296 293.999 176.065 293.999 172.079C293.999 168.094 290.686 164.863 286.6 164.863C282.514 164.863 279.201 168.094 279.201 172.079C279.201 176.065 282.514 179.296 286.6 179.296Z" fill="#3151A1"/>
<path d="M416.79 185.219H352.482C351.229 185.219 350.213 184.202 350.213 182.949V161.215C350.213 159.961 351.229 158.944 352.482 158.944H416.79C418.043 158.944 419.059 159.961 419.059 161.215V182.949C419.059 184.202 418.043 185.219 416.79 185.219Z" fill="url(#paint3_linear)"/>
<path d="M416.918 185.219H352.61C351.357 185.219 350.341 184.202 350.341 182.949V161.215C350.341 159.961 351.357 158.944 352.61 158.944H416.918C418.171 158.944 419.187 159.961 419.187 161.215V182.949C419.187 184.202 418.171 185.219 416.918 185.219Z" fill="#FCFDFF"/>
<path d="M413.382 166.255H375.945V167.859H413.382V166.255Z" fill="#A4D1FF"/>
<path d="M413.382 169.971H398.219V171.576H413.382V169.971Z" fill="#A4D1FF"/>
<path d="M361.69 179.296C365.776 179.296 369.089 176.065 369.089 172.079C369.089 168.094 365.776 164.863 361.69 164.863C357.604 164.863 354.292 168.094 354.292 172.079C354.292 176.065 357.604 179.296 361.69 179.296Z" fill="#3151A1"/>
<path d="M266.604 217.882H202.296C201.043 217.882 200.027 216.865 200.027 215.611V193.877C200.027 192.623 201.043 191.607 202.296 191.607H266.604C267.857 191.607 268.873 192.623 268.873 193.877V215.611C268.878 216.865 267.862 217.882 266.604 217.882Z" fill="url(#paint4_linear)"/>
<path d="M266.737 217.882H202.429C201.176 217.882 200.16 216.865 200.16 215.611V193.877C200.16 192.623 201.176 191.607 202.429 191.607H266.737C267.99 191.607 269.006 192.623 269.006 193.877V215.611C269.006 216.865 267.99 217.882 266.737 217.882Z" fill="#FCFDFF"/>
<path d="M263.201 198.922H225.764V200.526H263.201V198.922Z" fill="#A4D1FF"/>
<path d="M263.201 202.634H248.039V204.238H263.201V202.634Z" fill="#A4D1FF"/>
<path d="M211.51 211.963C215.596 211.963 218.908 208.732 218.908 204.747C218.908 200.761 215.596 197.53 211.51 197.53C207.424 197.53 204.111 200.761 204.111 204.747C204.111 208.732 207.424 211.963 211.51 211.963Z" fill="#3151A1"/>
<path d="M341.699 217.882H277.391C276.138 217.882 275.122 216.865 275.122 215.611V193.877C275.122 192.623 276.138 191.607 277.391 191.607H341.699C342.952 191.607 343.968 192.623 343.968 193.877V215.611C343.968 216.865 342.952 217.882 341.699 217.882Z" fill="url(#paint5_linear)"/>
<path d="M341.828 217.882H277.52C276.267 217.882 275.251 216.865 275.251 215.611V193.877C275.251 192.623 276.267 191.607 277.52 191.607H341.828C343.081 191.607 344.097 192.623 344.097 193.877V215.611C344.097 216.865 343.081 217.882 341.828 217.882Z" fill="#FCFDFF"/>
<path d="M338.291 198.922H300.855V200.526H338.291V198.922Z" fill="#A4D1FF"/>
<path d="M338.291 202.634H323.129V204.238H338.291V202.634Z" fill="#A4D1FF"/>
<path d="M286.6 211.963C290.686 211.963 293.999 208.732 293.999 204.747C293.999 200.761 290.686 197.53 286.6 197.53C282.514 197.53 279.201 200.761 279.201 204.747C279.201 208.732 282.514 211.963 286.6 211.963Z" fill="#3151A1"/>
<path d="M416.79 217.882H352.482C351.229 217.882 350.213 216.865 350.213 215.611V193.877C350.213 192.623 351.229 191.607 352.482 191.607H416.79C418.043 191.607 419.059 192.623 419.059 193.877V215.611C419.059 216.865 418.043 217.882 416.79 217.882Z" fill="url(#paint6_linear)"/>
<path d="M416.918 217.882H352.61C351.357 217.882 350.341 216.865 350.341 215.611V193.877C350.341 192.623 351.357 191.607 352.61 191.607H416.918C418.171 191.607 419.187 192.623 419.187 193.877V215.611C419.187 216.865 418.171 217.882 416.918 217.882Z" fill="#FCFDFF"/>
<path d="M413.382 198.922H375.945V200.526H413.382V198.922Z" fill="#A4D1FF"/>
<path d="M413.382 202.634H398.219V204.238H413.382V202.634Z" fill="#A4D1FF"/>
<path d="M361.69 211.963C365.776 211.963 369.089 208.732 369.089 204.747C369.089 200.761 365.776 197.53 361.69 197.53C357.604 197.53 354.292 200.761 354.292 204.747C354.292 208.732 357.604 211.963 361.69 211.963Z" fill="#3151A1"/>
<path d="M417.821 319.181H203.835C201.571 319.181 199.736 317.345 199.736 315.08V234.304C199.736 232.039 201.571 230.202 203.835 230.202H417.821C420.085 230.202 421.919 232.039 421.919 234.304V315.084C421.919 317.345 420.085 319.181 417.821 319.181Z" fill="#FCFDFF"/>
<path d="M198.059 310.578L254.767 288.992L291.631 283.409L328.648 289.101L381.538 286.396L420.5 261" stroke="#3151A1" stroke-width="4" stroke-miterlimit="10"/>
<path d="M198.059 310.578L255.048 277.086L293.856 295.848L348.896 265.54L382.036 272.382L406.876 260.905L422 260.905" stroke="#A4D1FF" stroke-width="4" stroke-miterlimit="10"/>
<path d="M390.387 246.215H410.476C412.079 246.215 413.382 244.912 413.382 243.308V241.931C413.382 240.326 412.079 239.023 410.476 239.023H390.387C388.784 239.023 387.482 240.326 387.482 241.931V243.308C387.487 244.912 388.784 246.215 390.387 246.215Z" fill="#A4D1FF"/>
<path d="M371.989 246.215H381.015C382.618 246.215 383.921 244.912 383.921 243.308V241.931C383.921 240.326 382.618 239.023 381.015 239.023H371.989C370.386 239.023 369.084 240.326 369.084 241.931V243.308C369.089 244.912 370.386 246.215 371.989 246.215Z" fill="#A4D1FF"/>
<g filter="url(#filter1_d)">
<path d="M69.9163 172.079C98.7587 172.079 122.14 148.68 122.14 119.815C122.14 90.9506 98.7587 67.5513 69.9163 67.5513C41.0738 67.5513 17.6924 90.9506 17.6924 119.815C17.6924 148.68 41.0738 172.079 69.9163 172.079Z" fill="white"/>
</g>
<g filter="url(#filter2_d)">
<path d="M52.2239 347.15C81.0663 347.15 104.448 323.75 104.448 294.886C104.448 266.021 81.0663 242.622 52.2239 242.622C23.3814 242.622 0 266.021 0 294.886C0 323.75 23.3814 347.15 52.2239 347.15Z" fill="white"/>
</g>
<g filter="url(#filter3_d)">
<path d="M550.072 328.768C576.542 328.768 598 307.293 598 280.803C598 254.313 576.542 232.838 550.072 232.838C523.602 232.838 502.144 254.313 502.144 280.803C502.144 307.293 523.602 328.768 550.072 328.768Z" fill="white"/>
</g>
<path d="M574.088 277.668C574.335 279.559 574.359 281.484 574.152 283.404C573.54 289.071 570.956 294.338 566.847 298.287C562.738 302.236 557.372 304.605 551.695 304.985C546.013 305.365 540.38 303.731 535.783 300.37C531.186 297.008 527.921 292.131 526.56 286.598C525.198 281.065 525.83 275.23 528.34 270.116C530.851 265.002 535.083 260.935 540.291 258.635C545.495 256.334 551.335 255.94 556.8 257.519L550.077 280.803L574.088 277.668Z" fill="url(#paint7_linear)"/>
<path d="M579.07 272.293L555.133 276.119L562.438 253.057C567.848 254.76 572.48 258.309 575.548 263.077C577.363 265.896 578.552 269.035 579.07 272.293Z" fill="#3151A1"/>
<path d="M84.669 146.535H55.1685C51.4988 146.535 48.5246 143.558 48.5246 139.886V99.7399C48.5246 96.0674 51.4988 93.0909 55.1685 93.0909H84.669C88.3387 93.0909 91.3129 96.0674 91.3129 99.7399V139.886C91.3129 143.558 88.3387 146.535 84.669 146.535Z" fill="url(#paint8_linear)"/>
<path d="M60.2784 111.962C63.4111 111.962 65.9507 109.42 65.9507 106.285C65.9507 103.15 63.4111 100.609 60.2784 100.609C57.1458 100.609 54.6062 103.15 54.6062 106.285C54.6062 109.42 57.1458 111.962 60.2784 111.962Z" fill="#3151A1"/>
<path d="M85.2263 102.667H70.0347V105.5H85.2263V102.667Z" fill="#E9F5FF"/>
<path d="M79.1003 107.524H70.0347V110.358H79.1003V107.524Z" fill="#E9F5FF"/>
<path d="M60.2784 125.492C63.4111 125.492 65.9507 122.95 65.9507 119.815C65.9507 116.68 63.4111 114.139 60.2784 114.139C57.1458 114.139 54.6062 116.68 54.6062 119.815C54.6062 122.95 57.1458 125.492 60.2784 125.492Z" fill="#3151A1"/>
<path d="M85.2263 116.197H70.0347V119.03H85.2263V116.197Z" fill="#E9F5FF"/>
<path d="M79.1003 121.059H70.0347V123.892H79.1003V121.059Z" fill="#E9F5FF"/>
<path d="M60.2784 139.022C63.4111 139.022 65.9507 136.48 65.9507 133.345C65.9507 130.21 63.4111 127.669 60.2784 127.669C57.1458 127.669 54.6062 130.21 54.6062 133.345C54.6062 136.48 57.1458 139.022 60.2784 139.022Z" fill="#3151A1"/>
<path d="M85.2263 129.727H70.0347V132.561H85.2263V129.727Z" fill="#E9F5FF"/>
<path d="M79.1003 134.589H70.0347V137.423H79.1003V134.589Z" fill="#E9F5FF"/>
<path d="M73.4528 281.385V314.146C73.4528 315.237 72.565 316.126 71.4749 316.126H24.9084C23.8184 316.126 22.9355 315.237 22.9355 314.146V281.385C22.9355 280.294 23.8184 279.406 24.9084 279.406H71.47C72.565 279.401 73.4528 280.289 73.4528 281.385Z" fill="url(#paint9_linear)"/>
<path d="M73.4528 281.385V285.907H22.9355V281.385C22.9355 280.294 23.8184 279.406 24.9084 279.406H71.47C72.565 279.401 73.4528 280.289 73.4528 281.385Z" fill="#E9F5FF"/>
<path d="M79.2532 299.822H55.9626C54.7147 299.822 53.7036 298.81 53.7036 297.561V275.896C53.7036 274.647 54.7147 273.635 55.9626 273.635H79.2532C80.5011 273.635 81.5123 274.647 81.5123 275.896V297.561C81.5123 298.81 80.5011 299.822 79.2532 299.822Z" fill="#3151A1"/>
<path d="M67.9039 285.611C70.0178 285.611 71.7314 283.896 71.7314 281.78C71.7314 279.665 70.0178 277.95 67.9039 277.95C65.79 277.95 64.0764 279.665 64.0764 281.78C64.0764 283.896 65.79 285.611 67.9039 285.611Z" fill="#E9F5FF"/>
<path d="M58.6557 295.513C58.6557 290.567 62.6657 286.553 67.6079 286.553C72.5502 286.553 76.5602 290.567 76.5602 295.513H58.6557Z" fill="#E9F5FF"/>
<path d="M28.1243 284.806C29.312 284.806 30.2749 283.842 30.2749 282.654C30.2749 281.465 29.312 280.502 28.1243 280.502C26.9367 280.502 25.9738 281.465 25.9738 282.654C25.9738 283.842 26.9367 284.806 28.1243 284.806Z" fill="url(#paint10_linear)"/>
<path d="M282.427 51.0891H278.817V59.2831H282.427V51.0891Z" fill="#3150A1"/>
<path d="M289.688 46.9922H285.239V59.2832H289.688V46.9922Z" fill="#3150A1"/>
<path d="M296.756 42.2534H292.307V56.9681H296.756V42.2534Z" fill="#3150A1"/>
<path d="M289.234 26.6503C278.817 26.6503 270.363 35.1108 270.363 45.5459C270.363 49.6429 271.675 53.4437 273.899 56.5387L260.133 70.3944C258.658 71.8703 258.658 74.2693 260.133 75.7452L262.032 77.6506C263.507 79.1265 265.904 79.1265 267.379 77.6506L281.969 62.9655C284.203 63.9083 286.659 64.4217 289.234 64.4217C299.661 64.4217 308.115 55.9661 308.115 45.536C308.115 35.1059 299.661 26.6503 289.234 26.6503ZM289.234 57.057C282.886 57.057 277.732 51.9036 277.732 45.5459C277.732 39.1832 282.881 34.0298 289.234 34.0298C295.592 34.0298 300.741 39.1832 300.741 45.5459C300.741 51.8987 295.592 57.057 289.234 57.057Z" fill="url(#paint11_linear)"/>
</g>
<g filter="url(#filter4_d)">
<path d="M456.702 171.571C483.172 171.571 504.63 150.096 504.63 123.606C504.63 97.1161 483.172 75.6416 456.702 75.6416C430.233 75.6416 408.775 97.1161 408.775 123.606C408.775 150.096 430.233 171.571 456.702 171.571Z" fill="white"/>
</g>
<path d="M461.758 123.567C461.758 124.258 461.605 124.914 461.334 125.502C460.604 127.066 459.016 128.152 457.181 128.152C456.954 128.152 456.727 128.133 456.505 128.103C454.345 127.782 452.673 125.956 452.599 123.72C452.594 123.665 452.594 123.616 452.594 123.567C452.594 121.859 453.531 120.368 454.912 119.583C455.578 119.203 456.352 118.986 457.176 118.986C458.444 118.986 459.583 119.499 460.412 120.329H460.417C461.245 121.158 461.758 122.303 461.758 123.567Z" fill="#3151A1"/>
<path d="M470.311 116.577L466.207 120.694C466.493 121.602 466.651 122.565 466.651 123.567C466.651 128.799 462.414 133.044 457.181 133.044C455.563 133.044 454.034 132.634 452.697 131.914C452.623 131.879 452.549 131.84 452.48 131.795C450.902 130.892 449.61 129.549 448.771 127.925C448.722 127.831 448.673 127.738 448.628 127.639C448.041 126.405 447.711 125.028 447.711 123.567C447.711 118.334 451.948 114.089 457.181 114.089C458.054 114.089 458.892 114.208 459.692 114.43C461.299 114.864 462.73 115.718 463.874 116.863L467.697 113.038C466.592 111.932 465.305 110.994 463.894 110.279C461.877 109.257 459.598 108.679 457.181 108.679C448.969 108.679 442.305 115.343 442.305 123.562C442.305 131.78 448.964 138.449 457.181 138.449C465.393 138.449 472.052 131.785 472.052 123.562C472.052 121.034 471.421 118.66 470.311 116.577Z" fill="url(#paint12_linear)"/>
<path d="M477.128 109.745L473.552 113.329C475.406 116.296 476.481 119.805 476.481 123.567C476.481 134.239 467.84 142.887 457.181 142.887C446.517 142.887 437.876 134.239 437.876 123.567C437.876 112.9 446.517 104.252 457.181 104.252C460.841 104.252 464.264 105.273 467.179 107.04C468.506 107.85 469.734 108.817 470.829 109.908L474.336 106.399C473.256 105.318 472.067 104.335 470.794 103.467C466.913 100.831 462.227 99.2858 457.181 99.2858C443.78 99.2858 432.919 110.16 432.919 123.567C432.919 136.978 443.78 147.848 457.181 147.848C470.577 147.848 481.443 136.978 481.443 123.567C481.443 118.428 479.85 113.67 477.128 109.745Z" fill="url(#paint13_linear)"/>
<path d="M481.828 98.7823L479.594 93.7129L474.015 99.2858V104.247L457.615 120.437L457.043 123.285L456.821 123.508L457.008 123.473L456.969 123.656L457.191 123.438L460.042 122.886L476.319 106.572L481.276 106.601L486.879 101.053L481.828 98.7873" fill="#3151A1"/>
<defs>
<filter id="filter0_d" x="220.376" y="-6" width="132.448" height="132.528" filterUnits="userSpaceOnUse" color-interpolation-filters="sRGB">
<feFlood flood-opacity="0" result="BackgroundImageFix"/>
<feColorMatrix in="SourceAlpha" type="matrix" values="0 0 0 0 0 0 0 0 0 0 0 0 0 0 0 0 0 0 127 0"/>
<feOffset dy="8"/>
<feGaussianBlur stdDeviation="7"/>
<feColorMatrix type="matrix" values="0 0 0 0 0.192826 0 0 0 0 0.31591 0 0 0 0 0.632784 0 0 0 0.12 0"/>
<feBlend mode="normal" in2="BackgroundImageFix" result="effect1_dropShadow"/>
<feBlend mode="normal" in="SourceGraphic" in2="effect1_dropShadow" result="shape"/>
</filter>
<filter id="filter1_d" x="3.6924" y="61.5513" width="132.448" height="132.528" filterUnits="userSpaceOnUse" color-interpolation-filters="sRGB">
<feFlood flood-opacity="0" result="BackgroundImageFix"/>
<feColorMatrix in="SourceAlpha" type="matrix" values="0 0 0 0 0 0 0 0 0 0 0 0 0 0 0 0 0 0 127 0"/>
<feOffset dy="8"/>
<feGaussianBlur stdDeviation="7"/>
<feColorMatrix type="matrix" values="0 0 0 0 0.192826 0 0 0 0 0.31591 0 0 0 0 0.632784 0 0 0 0.12 0"/>
<feBlend mode="normal" in2="BackgroundImageFix" result="effect1_dropShadow"/>
<feBlend mode="normal" in="SourceGraphic" in2="effect1_dropShadow" result="shape"/>
</filter>
<filter id="filter2_d" x="-14" y="236.622" width="132.448" height="132.528" filterUnits="userSpaceOnUse" color-interpolation-filters="sRGB">
<feFlood flood-opacity="0" result="BackgroundImageFix"/>
<feColorMatrix in="SourceAlpha" type="matrix" values="0 0 0 0 0 0 0 0 0 0 0 0 0 0 0 0 0 0 127 0"/>
<feOffset dy="8"/>
<feGaussianBlur stdDeviation="7"/>
<feColorMatrix type="matrix" values="0 0 0 0 0.192826 0 0 0 0 0.31591 0 0 0 0 0.632784 0 0 0 0.12 0"/>
<feBlend mode="normal" in2="BackgroundImageFix" result="effect1_dropShadow"/>
<feBlend mode="normal" in="SourceGraphic" in2="effect1_dropShadow" result="shape"/>
</filter>
<filter id="filter3_d" x="488.144" y="226.838" width="123.856" height="123.929" filterUnits="userSpaceOnUse" color-interpolation-filters="sRGB">
<feFlood flood-opacity="0" result="BackgroundImageFix"/>
<feColorMatrix in="SourceAlpha" type="matrix" values="0 0 0 0 0 0 0 0 0 0 0 0 0 0 0 0 0 0 127 0"/>
<feOffset dy="8"/>
<feGaussianBlur stdDeviation="7"/>
<feColorMatrix type="matrix" values="0 0 0 0 0.192826 0 0 0 0 0.31591 0 0 0 0 0.632784 0 0 0 0.12 0"/>
<feBlend mode="normal" in2="BackgroundImageFix" result="effect1_dropShadow"/>
<feBlend mode="normal" in="SourceGraphic" in2="effect1_dropShadow" result="shape"/>
</filter>
<filter id="filter4_d" x="394.775" y="69.6416" width="123.856" height="123.929" filterUnits="userSpaceOnUse" color-interpolation-filters="sRGB">
<feFlood flood-opacity="0" result="BackgroundImageFix"/>
<feColorMatrix in="SourceAlpha" type="matrix" values="0 0 0 0 0 0 0 0 0 0 0 0 0 0 0 0 0 0 127 0"/>
<feOffset dy="8"/>
<feGaussianBlur stdDeviation="7"/>
<feColorMatrix type="matrix" values="0 0 0 0 0.192826 0 0 0 0 0.31591 0 0 0 0 0.632784 0 0 0 0.12 0"/>
<feBlend mode="normal" in2="BackgroundImageFix" result="effect1_dropShadow"/>
<feBlend mode="normal" in="SourceGraphic" in2="effect1_dropShadow" result="shape"/>
</filter>
<linearGradient id="paint0_linear" x1="292.373" y1="326.035" x2="292.373" y2="386.569" gradientUnits="userSpaceOnUse">
<stop stop-color="#E9F5FF"/>
<stop offset="1" stop-color="#3151A1"/>
</linearGradient>
<linearGradient id="paint1_linear" x1="200.027" y1="172.08" x2="268.877" y2="172.08" gradientUnits="userSpaceOnUse">
<stop stop-color="#E1EEFF"/>
<stop offset="1" stop-color="white"/>
</linearGradient>
<linearGradient id="paint2_linear" x1="275.118" y1="172.08" x2="343.968" y2="172.08" gradientUnits="userSpaceOnUse">
<stop stop-color="#E1EEFF"/>
<stop offset="1" stop-color="white"/>
</linearGradient>
<linearGradient id="paint3_linear" x1="350.209" y1="172.08" x2="419.059" y2="172.08" gradientUnits="userSpaceOnUse">
<stop stop-color="#E1EEFF"/>
<stop offset="1" stop-color="white"/>
</linearGradient>
<linearGradient id="paint4_linear" x1="200.027" y1="204.744" x2="268.877" y2="204.744" gradientUnits="userSpaceOnUse">
<stop stop-color="#E1EEFF"/>
<stop offset="1" stop-color="white"/>
</linearGradient>
<linearGradient id="paint5_linear" x1="275.118" y1="204.744" x2="343.968" y2="204.744" gradientUnits="userSpaceOnUse">
<stop stop-color="#E1EEFF"/>
<stop offset="1" stop-color="white"/>
</linearGradient>
<linearGradient id="paint6_linear" x1="350.209" y1="204.744" x2="419.059" y2="204.744" gradientUnits="userSpaceOnUse">
<stop stop-color="#E1EEFF"/>
<stop offset="1" stop-color="white"/>
</linearGradient>
<linearGradient id="paint7_linear" x1="538.5" y1="211" x2="633.5" y2="474.5" gradientUnits="userSpaceOnUse">
<stop stop-color="#3151A1"/>
<stop offset="1" stop-color="white" stop-opacity="0"/>
</linearGradient>
<linearGradient id="paint8_linear" x1="42.0486" y1="69.6143" x2="134.872" y2="236.568" gradientUnits="userSpaceOnUse">
<stop stop-color="#E9F5FF"/>
<stop offset="1" stop-color="#3151A1"/>
</linearGradient>
<linearGradient id="paint9_linear" x1="23.1364" y1="270.573" x2="92.0843" y2="345.281" gradientUnits="userSpaceOnUse">
<stop stop-color="#E9F5FF"/>
<stop offset="1" stop-color="#3151A1"/>
</linearGradient>
<linearGradient id="paint10_linear" x1="22.6731" y1="272.728" x2="48.7784" y2="320.177" gradientUnits="userSpaceOnUse">
<stop stop-color="#E9F5FF"/>
<stop offset="1" stop-color="#3151A1"/>
</linearGradient>
<linearGradient id="paint11_linear" x1="316.5" y1="73.5" x2="277.501" y2="36.4986" gradientUnits="userSpaceOnUse">
<stop stop-color="#E9F5FF"/>
<stop offset="0.924989" stop-color="#3151A1"/>
</linearGradient>
<linearGradient id="paint12_linear" x1="495.5" y1="141" x2="437.5" y2="106.5" gradientUnits="userSpaceOnUse">
<stop stop-color="#E9F5FF"/>
<stop offset="1" stop-color="#3151A1"/>
</linearGradient>
<linearGradient id="paint13_linear" x1="457.31" y1="66.6032" x2="457.015" y2="195.748" gradientUnits="userSpaceOnUse">
<stop offset="0.241161" stop-color="#3151A1"/>
<stop offset="1" stop-color="#E9F5FF"/>
</linearGradient>
<clipPath id="clip0">
<rect width="598" height="368" fill="white"/>
</clipPath>
</defs>
</svg>
