<svg width="24" height="24" viewBox="0 0 24 24" fill="none" xmlns="http://www.w3.org/2000/svg">
<path fill-rule="evenodd" clip-rule="evenodd" d="M14.6233 12.8066C10.8878 12.8066 7.80575 15.6304 7.40234 19.2611H21.8361C21.4327 15.6304 18.3588 12.8066 14.6233 12.8066ZM14.6233 4.73853C12.8402 4.73853 11.396 6.18271 11.396 7.96576C11.396 9.74881 12.8402 11.193 14.6233 11.193C16.4063 11.193 17.8505 9.74881 17.8505 7.96576C17.8505 6.18271 16.3983 4.73853 14.6233 4.73853Z" fill="#DBE5FF"/>
<path d="M14.3998 7.20737C14.6822 9.02269 13.94 10.6928 12.6652 11.7255C15.8037 12.8712 18.1112 15.7353 18.4661 19.1804C18.563 20.1566 17.7642 20.8747 16.8929 20.8747H2.37032C1.49897 20.8747 0.700231 20.1486 0.797048 19.1804C1.13591 15.7353 3.44338 12.8712 6.58186 11.7255C5.4846 10.838 4.78268 9.48257 4.78268 7.96577C4.78268 5.1016 7.26765 2.81834 10.2044 3.1572C12.3183 3.40731 14.0771 5.09353 14.3998 7.20737Z" fill="#F6F7FA"/>
<path fill-rule="evenodd" clip-rule="evenodd" d="M9.62377 12.8066C5.88824 12.8066 2.80624 15.6304 2.40283 19.2611H16.8366C16.4332 15.6304 13.3593 12.8066 9.62377 12.8066ZM9.62377 4.73853C7.84072 4.73853 6.39653 6.18271 6.39653 7.96576C6.39653 9.74881 7.84072 11.193 9.62377 11.193C11.4068 11.193 12.851 9.74881 12.851 7.96576C12.851 6.18271 11.3987 4.73853 9.62377 4.73853Z" fill="#3151A1"/>
</svg>
