<svg width="263" height="263" viewBox="0 0 263 263" fill="none" xmlns="http://www.w3.org/2000/svg">
<g clip-path="url(#clip0)">
<path d="M262.367 7.43816L213.242 99.8608C212.822 100.648 212.001 101.141 211.107 101.141H49.6808C48.7728 101.141 47.9372 100.629 47.5267 99.8173L0.594108 7.38986C-1.01909 4.15374 0.830775 -8.48378e-05 3.94126 -8.48378e-05H259.064C262.169 -0.0483852 264.058 4.25034 262.367 7.43816Z" fill="#3150A1"/>
<path d="M209.648 109.038L164.537 193.853C164.117 194.641 163.296 195.133 162.407 195.133H96.1786C95.2706 195.133 94.435 194.621 94.0245 193.81L50.9607 108.995C50.1445 107.386 51.3133 105.488 53.1149 105.488H207.518C209.339 105.488 210.503 107.43 209.648 109.038Z" fill="#6A8BDC"/>
<path d="M160.948 203.03L147.545 228.243C147.125 229.03 146.304 229.523 145.415 229.523H112.431C111.523 229.523 110.688 229.011 110.277 228.2L97.4681 202.987C96.6518 201.378 97.8206 199.48 99.6222 199.48H158.823C160.639 199.48 161.803 201.422 160.948 203.03Z" fill="#8CA3DD"/>
<path d="M143.956 237.415L137.629 249.346C137.209 250.133 136.388 250.63 135.494 250.63H121.908C121 250.63 120.164 250.118 119.753 249.307L113.706 237.377C112.89 235.768 114.059 233.87 115.86 233.87H141.826C143.647 233.87 144.811 235.807 143.956 237.415Z" fill="#BBCAF3"/>
<path d="M134.316 254.977C135.045 254.977 135.509 255.755 135.171 256.397L132.818 260.822C132.07 262.222 130.771 263.044 129.394 262.995L127.544 262.947C126.245 262.899 125.028 262.029 124.318 260.677L122.125 256.383C121.797 255.741 122.265 254.977 122.985 254.977H134.316Z" fill="#E6EDFF"/>
</g>
<defs>
<clipPath id="clip0">
<rect width="263" height="263" fill="white"/>
</clipPath>
</defs>
</svg>
