<svg width="32" height="32" viewBox="0 0 32 32" fill="none" xmlns="http://www.w3.org/2000/svg">
<circle cx="16" cy="16" r="16" fill="#F3F3F3"/>
<path fill-rule="evenodd" clip-rule="evenodd" d="M23.3523 10.8758C23.168 10.7949 22.9642 10.75 22.75 10.75H9.25C8.76149 10.75 8.32753 10.9835 8.05365 11.345L14.9519 14.7924C15.4155 15.0241 15.9638 15.0112 16.4161 14.7581L23.3523 10.8758ZM7.75 12.3589V19.75C7.75 20.5784 8.42157 21.25 9.25 21.25H22.75C23.5784 21.25 24.25 20.5784 24.25 19.75V12.25C24.25 12.033 24.2039 11.8267 24.121 11.6405L16.9257 15.6677C16.172 16.0896 15.2581 16.111 14.4855 15.7248L7.75 12.3589Z" fill="#6D778E"/>
</svg>
