<svg width="122" height="118" viewBox="0 0 122 118" fill="none" xmlns="http://www.w3.org/2000/svg">
<rect width="122" height="118" rx="59" fill="#DBE5FF"/>
<mask id="mask0" mask-type="alpha" maskUnits="userSpaceOnUse" x="0" y="0" width="122" height="118">
<rect width="122" height="118" rx="59" fill="#DBE5FF"/>
</mask>
<g mask="url(#mask0)">
<path fill-rule="evenodd" clip-rule="evenodd" d="M74.157 108.012H79.7439V103.912H74.157V108.012ZM41.381 108.012H46.9678V103.912H41.381V108.012ZM75.4607 90.3092C77.1064 90.3092 78.4403 91.644 78.4403 93.2907C78.4403 94.9372 77.1064 96.2722 75.4607 96.2722C73.815 96.2722 72.481 94.9372 72.481 93.2907C72.481 91.644 73.815 90.3092 75.4607 90.3092ZM45.6642 90.3092C47.3097 90.3092 48.6439 91.644 48.6439 93.2907C48.6439 94.9372 47.3097 96.2722 45.6642 96.2722C44.0187 96.2722 42.6846 94.9372 42.6846 93.2907C42.6846 91.644 44.0187 90.3092 45.6642 90.3092ZM48.6439 74.0972H72.4811C72.3879 74.0972 72.7803 74.1859 73.3284 74.9172C73.8766 75.6486 74.4875 76.8363 75.0085 78.2266C75.6925 80.0519 76.2168 82.2213 76.5036 84.2668C72.1449 83.0651 67.3002 83.0418 60.5625 83.0418C53.8248 83.0418 48.98 83.0651 44.6214 84.2668C44.9082 82.2213 45.4324 80.0517 46.1164 78.2266C46.6375 76.8363 47.2483 75.6486 47.7964 74.9172C48.3446 74.1859 48.737 74.0972 48.6439 74.0972ZM48.6439 70.7432C47.0609 70.7432 45.9635 71.7725 45.1149 72.9047C44.2664 74.0368 43.5736 75.4579 42.9773 77.049C42.1821 79.1713 41.5732 81.5835 41.2551 83.9227C39.6308 83.5062 37.1491 83.097 36.7253 84.3463C36.2869 85.6384 38.093 86.8774 39.8293 87.7409C39.7697 87.9397 39.712 88.1453 39.6606 88.364C39.3267 89.7838 39.1463 91.5392 39.1463 93.2908C39.1463 95.0424 39.3267 96.7978 39.6606 98.2177C39.8975 99.2251 40.2394 100.038 40.5441 100.558H80.5808C80.8855 100.038 81.2274 99.2251 81.4643 98.2177C81.7982 96.7978 81.9786 95.0424 81.9786 93.2908C81.9786 91.5392 81.7982 89.7838 81.4643 88.3639C81.4144 88.1546 81.3581 87.9468 81.2955 87.7409C83.0319 86.8774 84.838 85.6384 84.3996 84.3463C83.9757 83.097 81.4941 83.5062 79.8698 83.9227C79.5519 81.5835 78.9429 79.1713 78.1475 77.049C77.5512 75.4579 76.8585 74.0368 76.0098 72.9047C75.1614 71.7725 74.0639 70.7432 72.481 70.7432H48.6439ZM30.0211 67.389H91.1038V64.0348H30.0211V67.389ZM30.0211 60.6805H91.1038V57.3263H30.0211V60.6805ZM60.5625 31.0635L20.5236 51.0955V108.012H26.1104V53.5995H95.0146V108.012H100.601V51.0955L60.5625 31.0635ZM60.5625 24.0002L16.5681 46.6704L18.8475 48.1837L60.5625 27.3132L102.277 48.1837L104.557 46.6706L60.5625 24V24.0002Z" fill="#3151A1"/>
</g>
</svg>
