<svg width="24" height="24" viewBox="0 0 24 24" fill="none" xmlns="http://www.w3.org/2000/svg">
<rect opacity="0.01" width="24" height="24" fill="#CDEBFF"/>
<path d="M20 8H21C21 7.73478 20.8946 7.48043 20.7071 7.29289L20 8ZM13 1L13.7071 0.292893C13.5196 0.105357 13.2652 0 13 0V1ZM9 17C8.44772 17 8 17.4477 8 18C8 18.5523 8.44772 19 9 19V17ZM15 19C15.5523 19 16 18.5523 16 18C16 17.4477 15.5523 17 15 17V19ZM9 13C8.44772 13 8 13.4477 8 14C8 14.5523 8.44772 15 9 15V13ZM12 15C12.5523 15 13 14.5523 13 14C13 13.4477 12.5523 13 12 13V15ZM3 3V21H5V3H3ZM6 24H18V22H6V24ZM21 21V8H19V21H21ZM20.7071 7.29289L13.7071 0.292893L12.2929 1.70711L19.2929 8.70711L20.7071 7.29289ZM13 0H6V2H13V0ZM12 1V6H14V1H12ZM15 9H20V7H15V9ZM9 19H15V17H9V19ZM9 15H12V13H9V15ZM18 24C19.6569 24 21 22.6569 21 21H19C19 21.5523 18.5523 22 18 22V24ZM3 21C3 22.6569 4.34315 24 6 24V22C5.44772 22 5 21.5523 5 21H3ZM12 6C12 7.65685 13.3431 9 15 9V7C14.4477 7 14 6.55228 14 6H12ZM5 3C5 2.44772 5.44772 2 6 2V0C4.34315 0 3 1.34315 3 3H5Z" fill="#A2A8B8"/>
</svg>
