<svg width="122" height="118" viewBox="0 0 122 118" fill="none" xmlns="http://www.w3.org/2000/svg">
<rect width="122" height="118" rx="59" fill="#DBE5FF"/>
<mask id="mask0" mask-type="alpha" maskUnits="userSpaceOnUse" x="0" y="0" width="122" height="118">
<rect width="122" height="118" rx="59" fill="#DBE5FF"/>
</mask>
<g mask="url(#mask0)">
<path fill-rule="evenodd" clip-rule="evenodd" d="M25.606 82.8298C22.1666 82.8298 19.3677 80.0232 19.3677 76.5745C19.3677 73.1259 22.1666 70.3193 25.606 70.3193C29.0454 70.3193 31.8444 73.1259 31.8444 76.5745C31.8444 80.0232 29.0454 82.8298 25.606 82.8298ZM25.606 66.1489C19.873 66.1489 15.2086 70.8257 15.2086 76.5744C15.2086 82.3229 19.8728 86.9999 25.606 86.9999C31.3389 86.9999 36.0033 82.3231 36.0033 76.5744C36.0033 70.8259 31.3391 66.1489 25.606 66.1489Z" fill="#3151A1"/>
<path fill-rule="evenodd" clip-rule="evenodd" d="M100.951 46.8093H95.2969C94.7189 46.8093 94.251 46.336 94.2571 45.7564L94.3112 40.1059C94.3195 39.2448 95.2989 38.7776 95.9912 39.2864C98.2394 40.9335 100.109 42.8956 101.774 45.1225C102.294 45.8167 101.816 46.8093 100.951 46.8093ZM90.0982 45.7772C90.0916 46.3484 89.6281 46.8093 89.0584 46.8093H70.3143C69.7405 46.8093 69.2745 46.3423 69.2745 45.7667V34.3821C69.2745 33.8045 69.7339 33.3292 70.308 33.3292C74.4543 33.3251 78.8419 33.6273 83.5063 34.2739C85.7272 34.6658 87.7067 35.2039 89.5075 35.8648C89.9213 36.017 90.1854 36.4195 90.1813 36.8615L90.0982 45.7772ZM65.1158 45.7669C65.1158 46.3423 64.6501 46.8095 64.076 46.8095H36.9579C35.9973 46.8095 35.5606 45.6251 36.2695 44.9767C43.4852 38.3815 52.6617 34.6096 63.9699 33.6068C64.5792 33.5525 65.1158 34.0447 65.1158 34.6577V45.7669ZM121.262 65.5749V53.0645C121.262 52.1679 120.69 51.3692 119.839 51.0857L108.107 47.1638C103.688 39.6597 97.6143 32.5182 84.1914 30.16C84.1666 30.1559 84.1415 30.1517 84.1166 30.1476C59.3274 26.7113 40.7164 32.3181 28.7678 46.8178C19.874 46.947 10.795 48.8111 5.45511 52.2391C2.68952 54.0154 1.04879 57.1076 0.894777 60.398L0.653527 65.5752C-0.494232 65.5752 -1.42584 66.5093 -1.42584 67.6599V76.0004C-1.42584 77.1513 -0.494232 78.0854 0.653527 78.0854H8.97125C10.1253 78.0854 11.0487 77.1346 11.0506 75.9774C11.0506 75.9669 11.0528 75.9567 11.0528 75.944C11.084 67.9101 17.5865 61.4047 25.6069 61.4047C33.6461 61.4047 40.163 67.9392 40.163 76.0002C40.0134 77.2659 41.0093 78.0852 42.2424 78.0852H79.6725C80.8266 78.0852 81.7499 77.1344 81.7519 75.9772C81.7519 75.9667 81.7538 75.9564 81.7538 75.9437C81.785 67.9099 88.2875 61.4044 96.308 61.4044C104.347 61.4044 110.864 67.939 110.864 75.9999C110.714 77.2656 111.71 78.0849 112.943 78.0849H121.261C122.409 78.0849 123.34 77.1508 123.34 75.9999V67.6597C123.341 66.5091 122.41 65.5749 121.262 65.5749Z" fill="#3151A1"/>
<path fill-rule="evenodd" clip-rule="evenodd" d="M96.3076 82.2558C92.8682 82.2558 90.069 79.4493 90.069 76.0006C90.069 72.5519 92.8682 69.7454 96.3076 69.7454C99.7467 69.7454 102.546 72.5519 102.546 76.0006C102.546 79.4493 99.7467 82.2558 96.3076 82.2558ZM96.3075 65.575C90.5745 65.575 85.9102 70.2517 85.9102 76.0004C85.9102 81.7489 90.5743 86.4259 96.3075 86.4259C102.04 86.4259 106.705 81.7491 106.705 76.0004C106.705 70.252 102.04 65.575 96.3075 65.575Z" fill="#3151A1"/>
</g>
</svg>
