<svg width="24" height="24" viewBox="0 0 24 24" fill="none" xmlns="http://www.w3.org/2000/svg">
<path d="M11 18C11 18.5523 11.4477 19 12 19C12.5523 19 13 18.5523 13 18H11ZM13 16C13 15.4477 12.5523 15 12 15C11.4477 15 11 15.4477 11 16H13ZM3 13V21H5V13H3ZM6 24H18V22H6V24ZM21 21V13H19V21H21ZM6 12H7V10H6V12ZM8 11V6H6V11H8ZM7 12H17V10H7V12ZM17 12H18V10H17V12ZM16 6V11H18V6H16ZM13 18V16H11V18H13ZM12 2C14.2091 2 16 3.79086 16 6H18C18 2.68629 15.3137 0 12 0V2ZM21 13C21 11.3431 19.6569 10 18 10V12C18.5523 12 19 12.4477 19 13H21ZM18 24C19.6569 24 21 22.6569 21 21H19C19 21.5523 18.5523 22 18 22V24ZM3 21C3 22.6569 4.34315 24 6 24V22C5.44772 22 5 21.5523 5 21H3ZM8 6C8 3.79086 9.79086 2 12 2V0C8.68629 0 6 2.68629 6 6H8ZM5 13C5 12.4477 5.44772 12 6 12V10C4.34315 10 3 11.3431 3 13H5Z" fill="#A2A8B8"/>
</svg>
