<svg width="162" height="43" viewBox="0 0 162 43" fill="none" xmlns="http://www.w3.org/2000/svg">
<g clip-path="url(#clip0)">
<path d="M41.2123 17.9838L38.7892 17.7069C38.1147 17.6285 37.5504 17.1624 37.3483 16.5117C37.2106 16.0597 37.05 15.6119 36.8712 15.1734C36.72 14.8045 36.5594 14.4397 36.3848 14.0797C36.0959 13.4892 36.1692 12.7832 36.5683 12.2616L38.188 10.1713C38.7248 9.47471 38.6651 8.48706 38.0457 7.86414L35.2375 5.04013C34.6134 4.41252 33.6177 4.35713 32.9246 4.91104L31.0201 6.43852C30.488 6.86288 29.7584 6.93704 29.1618 6.61831C28.6754 6.35966 28.175 6.12918 27.6658 5.917C27.3722 5.79683 27.0739 5.68605 26.771 5.57996C26.1515 5.36778 25.7062 4.81856 25.6236 4.16326L25.2978 1.53265C25.1881 0.655306 24.4492 0 23.573 0H19.6035C18.718 0 17.9744 0.668919 17.8783 1.55048L17.6029 3.98723C17.5249 4.66553 17.0614 5.23306 16.4144 5.43632C15.9649 5.5748 15.5196 5.73627 15.0836 5.91606C14.7167 6.06815 14.3541 6.22963 13.996 6.40519C13.4088 6.69576 12.7068 6.62207 12.1882 6.22071L10.1096 4.59184C9.41689 4.05201 8.43478 4.11209 7.81536 4.73501L5.01139 7.55902C4.3873 8.18663 4.33222 9.1879 4.88302 9.88498L6.40193 11.8002C6.82391 12.3353 6.89766 13.069 6.58071 13.669C6.32352 14.1581 6.09433 14.6613 5.88334 15.1734C5.76384 15.4687 5.65368 15.7687 5.54819 16.0733C5.3372 16.6962 4.79107 17.144 4.13944 17.2271L1.52358 17.5548C0.65163 17.6651 0 18.4082 0 19.2897V23.2817C0 24.1722 0.665166 24.9199 1.54179 25.0166L3.96486 25.2936C4.63936 25.372 5.2037 25.8381 5.40582 26.4887C5.54352 26.9408 5.70409 27.3886 5.88287 27.827C6.03411 28.196 6.19468 28.5607 6.36926 28.9208C6.6582 29.5113 6.58491 30.2173 6.18581 30.7388L4.56608 32.8291C4.02927 33.5258 4.08902 34.5134 4.70845 35.1363L7.51661 37.9603C8.1407 38.5879 9.13635 38.6433 9.82953 38.0894L11.734 36.5619C12.2661 36.1376 12.9957 36.0634 13.5923 36.3822C14.0787 36.6408 14.579 36.8713 15.0883 37.0835C15.3819 37.2036 15.6802 37.3144 15.9831 37.4205C16.6026 37.6327 17.0479 38.1819 17.1305 38.8372L17.4563 41.4678C17.5665 42.3447 18.3054 43 19.1815 43H23.1511C24.0365 43 24.7801 42.3311 24.8763 41.4495L25.1517 39.0128C25.2296 38.3345 25.6932 37.7669 26.3401 37.5637C26.7896 37.4252 27.2349 37.2637 27.6709 37.0839C28.0378 36.9318 28.4005 36.7704 28.7585 36.5948C29.3457 36.3042 30.0478 36.3779 30.5664 36.7793L32.645 38.4082C33.3377 38.948 34.3198 38.8879 34.9392 38.265L37.7478 35.441C38.3719 34.8134 38.427 33.8121 37.8762 33.115L36.3573 31.1998C35.9353 30.6647 35.8616 29.931 36.1785 29.331C36.4357 28.8419 36.6649 28.3387 36.8712 27.8266C36.9907 27.5313 37.1009 27.2313 37.2064 26.9267C37.4174 26.3038 37.9635 25.856 38.6151 25.7729L41.231 25.4452C42.1029 25.3344 42.7546 24.5913 42.7546 23.7102V19.7183C42.7541 18.8325 42.0936 18.0852 41.2123 17.9838ZM29.3 29.4653C24.9267 33.8633 17.8325 33.8633 13.4592 29.4653C9.08594 25.0673 9.08594 17.9331 13.4592 13.5352C17.8325 9.1372 24.9267 9.1372 29.3 13.5352C33.6733 17.9331 33.6728 25.0673 29.3 29.4653Z" fill="#3151A1"/>
<path d="M26.707 20.8402V17.5543H25.0873V20.8402H22.0495V17.5543H20.4297V20.8402H17.3919V17.5543H15.7764V20.8402V22.1597V25.3996H17.3919V22.1597H20.4297V25.3996H22.0495V22.1597H25.8995H26.7257V20.8402H26.707Z" fill="#343945"/>
<path d="M26.7071 23.0644H25.0874V25.3992H26.7071V23.0644Z" fill="#343945"/>
<path d="M52.3496 19.9957H58.1727C61.2838 19.9957 63.8077 19.0865 65.7444 17.2684C67.6811 15.4504 68.6492 13.1197 68.6492 10.2863C68.6492 7.41114 67.6858 5.08096 65.7584 3.30421C63.8311 1.52278 61.3025 0.632294 58.1732 0.632294H52.3543C52.2348 0.632294 52.1339 0.728994 52.1339 0.853858V19.7789C52.1293 19.8943 52.2301 19.9957 52.3496 19.9957ZM55.2222 3.66426C55.2222 3.54409 55.3183 3.44269 55.4425 3.44269H58.141C60.3759 3.44269 62.1563 4.06561 63.4824 5.30722C64.8039 6.54835 65.4648 8.21009 65.4648 10.2821C65.4648 12.3358 64.7997 14.006 63.4642 15.2847C62.1334 16.5676 60.3577 17.2046 58.141 17.2046H55.4425C55.323 17.2046 55.2222 17.1079 55.2222 16.983V3.66426Z" fill="#3151A1"/>
<path d="M89.0696 19.1743C89.9827 19.9357 91.1898 20.3187 92.6858 20.3187C94.4479 20.3187 95.852 19.8066 96.8938 18.7866C97.0315 18.6481 97.2654 18.7452 97.2654 18.9433V19.7742C97.2654 19.8944 97.3616 19.9958 97.4857 19.9958L100.308 19.9174C100.427 19.9174 100.528 19.8207 100.528 19.6958V11.1998C100.528 9.30339 99.9961 7.82661 98.936 6.76948C97.876 5.71282 96.2469 5.42178 94.4572 5.42178C91.8965 5.42178 90.9148 5.68043 88.9688 6.6587C88.8726 6.7047 88.9137 6.86618 88.9917 6.94504L89.648 9.06774C89.7353 9.16022 89.8501 9.10013 89.9691 9.05836C91.6626 8.44483 92.6718 8.44013 94.0717 8.44013C95.0444 8.44013 95.852 8.69878 96.3893 9.22453C96.9032 9.73197 97.1968 10.4798 97.2197 11.4256C97.2103 11.5364 97.1142 11.6242 97.004 11.6242L92.9794 11.1904C91.3643 11.1904 90.0793 11.5641 89.1294 12.3072C88.1748 13.0503 87.6978 14.0469 87.6978 15.3021C87.6973 16.5484 88.1561 18.4082 89.0696 19.1743ZM93.9293 13.346C94.6542 13.3831 96.8159 13.6413 96.8159 13.6413C97.0456 13.6507 97.3023 13.7614 97.3023 14.1675C97.3023 15.4551 96.9214 16.3226 96.2147 16.9685C95.5033 17.6144 94.384 17.9421 93.3328 17.9421C92.5756 17.9421 91.9651 17.7712 91.5109 17.4299C91.0521 17.0887 90.8271 15.9902 90.8271 15.3992C90.8224 14.2229 92.2405 13.2582 93.9293 13.346Z" fill="#3151A1"/>
<path d="M95.4069 27.8223C92.8462 27.8223 91.8645 28.0809 89.9185 29.0592C89.8224 29.1052 89.8634 29.2667 89.9414 29.3456L90.5977 31.4683C90.685 31.5607 90.7998 31.5006 90.9188 31.4589C92.6123 30.8449 93.6215 30.8406 95.0214 30.8406C95.9942 30.8406 96.8017 31.0993 97.339 31.625C97.8529 32.1325 98.1465 32.8803 98.1694 33.8261C98.16 33.9369 98.0639 34.0247 97.9537 34.0247L93.9291 33.591C92.314 33.591 91.029 33.9646 90.0791 34.7077C89.1245 35.4508 88.6475 36.4474 88.6475 37.7026C88.6475 38.9531 89.1063 40.8176 90.0193 41.579C90.9324 42.3404 92.1395 42.7235 93.6355 42.7235C95.3976 42.7235 96.8017 42.2113 97.8436 41.1913C97.9813 41.0528 98.2151 41.15 98.2151 41.3481V42.1789C98.2151 42.2991 98.3113 42.4005 98.4354 42.4005L101.258 42.3221C101.377 42.3221 101.478 42.2254 101.478 42.1005V33.6046C101.478 31.7081 100.946 30.2313 99.8857 29.1742C98.8257 28.1129 97.1966 27.8223 95.4069 27.8223ZM97.1597 39.3681C96.4483 40.014 95.329 40.3416 94.2778 40.3416C93.5207 40.3416 92.9101 40.1708 92.4559 39.8295C91.9971 39.4882 91.7721 38.3898 91.7721 37.7988C91.7721 36.6267 93.1902 35.6578 94.8785 35.7451C95.6035 35.7822 97.7651 36.0404 97.7651 36.0404C97.9948 36.0498 98.2515 36.1605 98.2515 36.5666C98.2473 37.8547 97.8664 38.7222 97.1597 39.3681Z" fill="#343945"/>
<path d="M107.453 19.7742V0.420112C107.453 0.299941 107.356 0.198547 107.232 0.198547H104.608C104.488 0.198547 104.387 0.295247 104.387 0.420112V19.7699C104.387 19.8901 104.483 19.9915 104.608 19.9915H107.232C107.356 19.9957 107.453 19.8943 107.453 19.7742Z" fill="#3151A1"/>
<path d="M122.935 7.22664C121.669 5.96673 120.283 5.26072 118.393 5.26072C116.369 5.22364 114.621 5.94842 113.139 7.44821C111.661 8.9433 110.941 10.7294 110.977 12.8014C110.977 14.9335 111.716 16.7192 113.194 18.1547C114.672 19.5944 116.502 20.3098 118.677 20.3098C121.031 20.3098 122.537 19.2301 124.12 17.7716C124.202 17.6979 124.216 17.5731 124.152 17.4811L122.569 15.9996C122.495 15.8935 122.344 15.8752 122.247 15.9583C121.031 16.9872 120.21 17.5824 118.764 17.5824C117.539 17.5824 116.396 17.3609 115.658 16.5718C114.988 15.8564 114.511 15.1133 114.286 14.066C114.258 13.9276 114.364 13.7985 114.502 13.7985H124.602C124.707 13.7985 124.795 13.7248 124.818 13.6187C124.951 12.9681 124.932 12.5019 124.932 11.9804C124.941 10.106 124.202 8.49125 122.935 7.22664ZM121.55 11.7631H114.542C114.395 11.7631 114.294 11.6246 114.331 11.4814C114.584 10.5356 114.905 9.6493 115.584 9.06769C116.332 8.4307 117.213 8.11243 118.223 8.11243C119.255 8.11243 119.98 8.4307 120.682 9.06769C121.329 9.65822 121.701 10.5581 121.765 11.5274C121.779 11.657 121.678 11.7631 121.55 11.7631Z" fill="#3151A1"/>
<path d="M73.8854 18.1589C75.3633 19.5986 77.194 20.314 79.3692 20.314C81.7232 20.314 83.2286 19.2343 84.8114 17.7758C84.8941 17.7021 84.9076 17.5773 84.8437 17.4853L83.2603 16.0038C83.187 15.8977 83.0353 15.8794 82.9392 15.9625C81.7232 16.9915 80.9017 17.5867 79.456 17.5867C78.2307 17.5867 77.088 17.3651 76.3496 16.576C75.6798 15.8606 75.2022 15.1175 74.9777 14.0703C74.9502 13.9318 75.0557 13.8027 75.1934 13.8027H85.2936C85.3991 13.8027 85.4864 13.729 85.5093 13.6229C85.6423 12.9723 85.6241 12.5062 85.6241 11.9847C85.6241 10.1065 84.8852 8.48656 83.6235 7.22664C82.3571 5.96673 80.9712 5.26072 79.0807 5.26072C77.0572 5.22364 75.3087 5.94842 73.8266 7.44821C72.3488 8.9433 71.6285 10.7294 71.6654 12.8014C71.6645 14.9378 72.4076 16.7239 73.8854 18.1589ZM75.0141 11.4861C75.2666 10.5403 75.5878 9.654 76.267 9.07239C77.0148 8.43539 77.896 8.11712 78.9057 8.11712C79.9382 8.11712 80.6631 8.43539 81.3652 9.07239C82.0121 9.66292 82.3837 10.5628 82.4481 11.5321C82.4575 11.6565 82.3562 11.7673 82.2278 11.7673H75.2204C75.0785 11.7631 74.9772 11.6246 75.0141 11.4861Z" fill="#3151A1"/>
<path d="M84.3251 29.7099C83.0587 28.45 81.6729 27.744 79.7824 27.744C77.7589 27.7069 76.0103 28.4317 74.5283 29.9315C73.0504 31.4265 72.3302 33.2127 72.3671 35.2847C72.3671 37.4168 73.106 39.2024 74.5834 40.6379C76.0612 42.0776 77.8919 42.793 80.0671 42.793C82.4211 42.793 83.9265 41.7133 85.5093 40.2549C85.592 40.1812 85.6055 40.0563 85.5416 39.9643L83.9582 38.4828C83.8849 38.3767 83.7332 38.3584 83.6371 38.4415C82.4211 39.4705 81.5996 40.0657 80.1539 40.0657C78.9286 40.0657 77.786 39.8441 77.0475 39.055C76.3777 38.3396 75.9002 37.5966 75.6756 36.5493C75.6481 36.4108 75.7536 36.2817 75.8913 36.2817H85.9915C86.097 36.2817 86.1843 36.208 86.2072 36.1019C86.3402 35.4513 86.322 34.9852 86.322 34.4637C86.3258 32.5893 85.5868 30.974 84.3251 29.7099ZM82.9392 34.2459H75.9319C75.7849 34.2459 75.684 34.1074 75.7209 33.9642C75.9734 33.0183 76.2946 32.1321 76.9738 31.5505C77.7215 30.9135 78.6028 30.5952 79.6125 30.5952C80.645 30.5952 81.3699 30.9135 82.072 31.5505C82.7189 32.141 83.0905 33.0409 83.1549 34.0102C83.1638 34.1398 83.0629 34.2459 82.9392 34.2459Z" fill="#343945"/>
<path d="M136.344 5.38562C136.014 5.31661 135.881 5.38562 135.55 5.38562C134.031 5.38562 132.77 6.85302 131.755 7.91437C131.618 8.05754 131.379 7.96037 131.379 7.76228V5.80575C131.379 5.68558 131.283 5.58418 131.159 5.58418H128.327C128.208 5.58418 128.107 5.68088 128.107 5.80575V19.77C128.107 19.8901 128.203 19.9915 128.327 19.9915H131.365C131.485 19.9915 131.585 19.8948 131.585 19.77V13.1887C131.585 12.1645 132.021 11.0106 132.797 10.3093C133.572 9.60333 134.541 8.92502 135.784 8.92502L136.298 8.81893C136.418 8.81893 136.518 8.72223 136.518 8.59737V5.60249C136.518 5.49593 136.445 5.40862 136.344 5.38562Z" fill="#3151A1"/>
<path d="M113.376 27.7853C113.046 27.7163 112.913 27.7853 112.582 27.7853C111.064 27.7853 109.802 29.2527 108.788 30.314C108.65 30.4572 108.411 30.36 108.411 30.1619V28.2101C108.411 28.0899 108.315 27.9885 108.191 27.9885H105.359C105.24 27.9885 105.139 28.0852 105.139 28.2101V42.1743C105.139 42.2945 105.235 42.3959 105.359 42.3959H108.397C108.517 42.3959 108.618 42.2992 108.618 42.1743V35.5889C108.618 34.5646 109.054 33.4108 109.829 32.7095C110.604 32.0035 111.573 31.3251 112.816 31.3251L113.33 31.2191C113.45 31.2191 113.551 31.1224 113.551 30.9975V28.0026C113.551 27.8961 113.478 27.8041 113.376 27.7853Z" fill="#343945"/>
<path d="M148.431 13.2536C147.816 12.5983 146.678 12.1598 145.297 11.574L143.925 11.0154C143.205 10.7201 142.709 10.4526 142.439 10.208C142.168 9.96344 142.03 9.66348 142.03 9.31282C142.03 8.39465 142.664 8.06699 143.967 8.06699C145.197 8.06699 146.371 8.45473 147.422 9.28513C147.523 9.36352 147.656 9.36822 147.739 9.27152L148.937 7.3286C149.01 7.24551 149.015 7.11173 148.937 7.03334C147.427 5.63025 145.789 5.37207 143.797 5.37207C142.32 5.37207 141.356 5.63964 140.411 6.39634C139.466 7.14834 138.662 8.29278 138.662 9.56678C138.662 10.545 138.961 11.3529 139.552 11.9894C140.144 12.6264 141.425 13.0832 142.728 13.6324L144.187 14.2506C144.944 14.5642 145.472 14.8411 145.761 15.0857C146.055 15.3303 146.197 15.6485 146.197 16.041C146.197 16.5484 145.981 16.9455 145.555 17.2314C145.128 17.5131 144.573 17.6558 143.894 17.6558C142.567 17.6558 141.393 17.1483 139.722 16.0039C139.617 15.9349 139.489 15.9161 139.406 16.0133L138.185 17.8083C138.112 17.8914 138.098 18.0205 138.176 18.0989C139.796 19.6034 142.04 20.2493 144.013 20.185C145.596 20.1343 146.675 19.9498 147.689 19.1884C148.698 18.404 149.423 17.1577 149.423 15.7687C149.427 14.7534 149.041 13.9089 148.431 13.2536Z" fill="#3151A1"/>
<path d="M69.3745 31.6434L61.4494 31.5603C61.3299 31.5603 61.2291 31.657 61.2291 31.7819L61.2385 34.643C61.2385 34.7631 61.3346 34.8645 61.4588 34.8645L65.763 34.8274C65.8825 34.8274 65.9833 34.9241 65.9833 35.049L66.0015 37.9101C66.0015 37.9514 65.9968 38.0068 65.9646 38.0345C62.7709 40.6416 58.5353 39.2437 57.2414 37.9007C55.9475 36.5624 55.3509 34.9471 55.3509 32.9352C55.3509 30.9416 57.2325 26.5023 61.1605 26.4052C63.409 26.3498 65.0885 26.9037 66.3091 28.1636C66.3964 28.2514 66.5248 28.2791 66.6209 28.2007L68.6813 26.1057C68.7733 26.032 68.7961 25.8888 68.7182 25.801C66.7358 23.5675 64.8635 23 61.6516 23C58.9302 22.9629 56.4936 23.9093 54.5387 25.8287C52.5838 27.7486 51.7259 30.3328 51.7856 33.0141C51.7488 35.7137 52.6987 38.0167 54.6353 39.9272C56.572 41.8377 58.912 42.7329 61.6516 42.7329C64.8728 42.7329 68.7415 41.2655 69.5855 39.7704C69.6037 39.738 69.613 39.6967 69.613 39.6596L69.599 31.8654C69.5948 31.7401 69.494 31.6434 69.3745 31.6434Z" fill="#343945"/>
<path d="M16.7537 16.5948H16.2029V14.2919C16.2029 14.2182 16.2029 14.1398 16.2075 14.0609L15.744 14.4487C15.7165 14.4717 15.6889 14.4811 15.6661 14.4858C15.6385 14.4904 15.6157 14.4904 15.5928 14.4858C15.5699 14.4811 15.5517 14.4721 15.533 14.4628C15.5148 14.4534 15.5008 14.4398 15.492 14.4257L15.3174 14.1858L16.2995 13.346H16.749L16.7537 16.5948Z" fill="#3151A1"/>
<path d="M21.9805 16.0776C22.0402 16.0776 22.086 16.0959 22.1228 16.1283C22.1597 16.1607 22.1732 16.2067 22.1732 16.2621V16.5944H19.9658V16.4099C19.9658 16.3729 19.9752 16.3316 19.9887 16.2945C20.0022 16.2532 20.0298 16.2161 20.062 16.1837L21.0394 15.2007C21.122 15.1176 21.1953 15.0392 21.2597 14.9609C21.3242 14.8872 21.3792 14.8088 21.4203 14.7346C21.4614 14.6609 21.4983 14.5825 21.5211 14.5083C21.544 14.4299 21.558 14.3516 21.558 14.2638C21.558 14.1854 21.5487 14.1159 21.5258 14.0605C21.5029 14.0004 21.4707 13.9497 21.4297 13.9126C21.3886 13.8713 21.3377 13.8436 21.2826 13.8202C21.2275 13.8019 21.1631 13.7878 21.0898 13.7878C21.0254 13.7878 20.9661 13.7972 20.9064 13.8155C20.8513 13.8338 20.8009 13.8615 20.7594 13.8939C20.7178 13.9263 20.6814 13.9676 20.6492 14.0093C20.6217 14.0553 20.5988 14.1018 20.5806 14.1572C20.553 14.2262 20.5208 14.2727 20.4844 14.2957C20.4433 14.3187 20.3883 14.3234 20.3098 14.3093L20.0209 14.2586C20.0438 14.1018 20.0853 13.968 20.1493 13.8479C20.2137 13.7324 20.2916 13.631 20.3878 13.5526C20.4839 13.4742 20.5941 13.4141 20.7183 13.377C20.842 13.3357 20.9755 13.317 21.1174 13.317C21.2644 13.317 21.4021 13.34 21.5258 13.3817C21.6495 13.4277 21.7555 13.4878 21.8423 13.5709C21.9296 13.6493 21.9982 13.7465 22.0486 13.8615C22.099 13.977 22.1219 14.1014 22.1219 14.2398C22.1219 14.36 22.1037 14.4708 22.0715 14.5722C22.0346 14.6736 21.9889 14.7707 21.9291 14.8627C21.8694 14.9552 21.8007 15.0425 21.7228 15.1303C21.6448 15.2181 21.5622 15.3059 21.4749 15.3932L20.75 16.141C20.8186 16.118 20.8877 16.1039 20.9563 16.095C21.025 16.0856 21.0894 16.0767 21.1538 16.0767L21.9805 16.0776Z" fill="#3151A1"/>
<path d="M16.8411 29.2207C16.8915 29.2207 16.933 29.2343 16.9648 29.2667C16.997 29.2944 17.0105 29.3357 17.0105 29.3822V29.6728H15.0649V29.5113C15.0649 29.4789 15.0696 29.4423 15.0831 29.4099C15.0967 29.3728 15.12 29.3409 15.1476 29.3132L16.0106 28.4453C16.0839 28.3716 16.1483 28.3021 16.2034 28.2331C16.2585 28.1641 16.3089 28.0993 16.3458 28.0345C16.3827 27.9697 16.4144 27.9007 16.4331 27.836C16.4513 27.7669 16.4653 27.6975 16.4653 27.6238C16.4653 27.5548 16.456 27.4947 16.4378 27.444C16.4195 27.3933 16.392 27.3473 16.3551 27.3149C16.3183 27.2778 16.2772 27.2548 16.2268 27.2365C16.1764 27.2182 16.1213 27.2088 16.0569 27.2088C15.9971 27.2088 15.9467 27.2182 15.8963 27.2318C15.8459 27.2501 15.8043 27.2731 15.7679 27.3008C15.731 27.3285 15.6993 27.3656 15.6718 27.4022C15.6442 27.4435 15.626 27.4853 15.612 27.5313C15.5891 27.5914 15.5616 27.6327 15.5247 27.6515C15.4878 27.6698 15.4374 27.6745 15.3735 27.6651L15.1163 27.6191C15.1345 27.4806 15.176 27.3604 15.2311 27.259C15.2862 27.1576 15.3595 27.0699 15.4421 27.0004C15.5247 26.9314 15.6256 26.8802 15.731 26.8436C15.8412 26.8065 15.956 26.7929 16.0844 26.7929C16.2174 26.7929 16.3369 26.8112 16.4424 26.853C16.5526 26.8901 16.6445 26.9455 16.7225 27.0192C16.8004 27.0882 16.8602 27.1759 16.9013 27.2778C16.9423 27.3797 16.9657 27.49 16.9657 27.6102C16.9657 27.7162 16.9522 27.8134 16.9199 27.9007C16.8877 27.9885 16.8467 28.0763 16.7962 28.1594C16.7458 28.2425 16.6861 28.3209 16.6128 28.3946C16.5442 28.473 16.4704 28.5466 16.3971 28.6255L15.7595 29.2808C15.8193 29.2625 15.8832 29.2484 15.943 29.2395C16.0027 29.2301 16.0625 29.2259 16.1175 29.2259H16.8425V29.2207H16.8411Z" fill="#3151A1"/>
<path d="M22.1502 28.5974V28.879C22.1502 28.9067 22.1409 28.9297 22.1227 28.948C22.1044 28.9663 22.0816 28.9757 22.0494 28.9757H21.7922V29.6723H21.3702V28.9757H20.1771C20.1449 28.9757 20.1174 28.9663 20.0898 28.9433C20.0669 28.925 20.0487 28.8973 20.0441 28.8696L19.9937 28.6251L21.338 26.8159H21.7968V28.5974H22.1502ZM21.3749 28.5974V27.6651C21.3749 27.5773 21.3795 27.4806 21.3931 27.3745L20.5118 28.6021H21.3744V28.5974H21.3749Z" fill="#3151A1"/>
<path d="M27.3496 29.6728H26.8725C26.7806 29.6728 26.7166 29.6357 26.6751 29.5667L26.0785 28.6528C26.0556 28.6204 26.0328 28.5927 26.0052 28.5791C25.9777 28.5655 25.9408 28.5561 25.8857 28.5561H25.6607V29.6728H25.1328V26.8164H26.0001C26.1929 26.8164 26.3581 26.8347 26.4958 26.8765C26.6335 26.9178 26.7484 26.9732 26.8352 27.0474C26.9225 27.1211 26.9864 27.2041 27.0326 27.306C27.0737 27.4074 27.097 27.5182 27.097 27.6384C27.097 27.7351 27.0835 27.8275 27.056 27.9106C27.0284 27.9984 26.9873 28.0721 26.9323 28.1416C26.8772 28.2106 26.8128 28.2707 26.7348 28.3261C26.6569 28.3767 26.5696 28.4185 26.4687 28.4504C26.501 28.4688 26.5332 28.4918 26.5649 28.5195C26.5924 28.5471 26.62 28.5795 26.6429 28.6162L27.3496 29.6728ZM25.9912 28.1777C26.0921 28.1777 26.1793 28.1641 26.2526 28.1406C26.3259 28.1176 26.3857 28.0805 26.4361 28.0392C26.4818 27.9932 26.5187 27.9425 26.5416 27.8825C26.5644 27.8224 26.5784 27.7534 26.5784 27.6839C26.5784 27.5407 26.5327 27.4299 26.4361 27.3515C26.3399 27.2731 26.1975 27.2361 26.0001 27.2361H25.6607V28.1819H25.9912V28.1777Z" fill="#3151A1"/>
<path d="M25.8764 14.4717C25.9497 14.4581 26.0188 14.444 26.0827 14.4393C26.1471 14.4346 26.2111 14.4299 26.2755 14.4299C26.4454 14.4299 26.5966 14.4576 26.7297 14.5083C26.858 14.559 26.9682 14.6327 27.0602 14.7205C27.1474 14.813 27.2161 14.919 27.2623 15.0387C27.308 15.1589 27.3309 15.2927 27.3309 15.4312C27.3309 15.6067 27.2987 15.7635 27.2389 15.9067C27.1792 16.0499 27.0919 16.1743 26.9864 16.2757C26.8763 16.377 26.7526 16.4554 26.6008 16.5108C26.4538 16.5662 26.2932 16.5939 26.1191 16.5939C26.0183 16.5939 25.9217 16.5845 25.8302 16.5615C25.7382 16.5385 25.6514 16.5108 25.573 16.4784C25.4904 16.4414 25.4171 16.4001 25.348 16.354C25.2794 16.308 25.2196 16.2573 25.1646 16.2062L25.3345 15.9663C25.3713 15.9156 25.4171 15.8879 25.4768 15.8879C25.5137 15.8879 25.5548 15.9015 25.5917 15.925C25.6327 15.948 25.6743 15.9757 25.7247 16.0034C25.7751 16.0311 25.8349 16.0588 25.9035 16.0818C25.9721 16.1048 26.0547 16.1189 26.1513 16.1189C26.2522 16.1189 26.3441 16.1006 26.4221 16.0682C26.5 16.0358 26.5644 15.9898 26.6148 15.9297C26.6653 15.8696 26.7068 15.8006 26.7343 15.7175C26.7619 15.6344 26.7754 15.5467 26.7754 15.45C26.7754 15.2702 26.725 15.1317 26.6195 15.0298C26.5187 14.9284 26.3623 14.8777 26.1653 14.8777C26.0094 14.8777 25.8535 14.9054 25.6883 14.9655L25.3396 14.8641L25.6103 13.2766H27.2165V13.5164C27.2165 13.5948 27.1937 13.6596 27.1432 13.7103C27.0928 13.761 27.0102 13.784 26.8907 13.784H25.9959L25.8764 14.4717Z" fill="#3151A1"/>
<path d="M116.607 34.5092C116.575 32.3954 117.341 30.582 118.892 29.0728C120.448 27.5637 122.288 26.83 124.422 26.8717C125.812 26.8717 127.074 27.1947 128.207 27.8453C129.341 28.4912 130.231 29.3911 130.883 30.5355L128.616 32.1414C127.565 30.4895 126.165 29.6634 124.417 29.6634C123.054 29.6634 121.925 30.1248 121.031 31.0477C120.136 31.9705 119.686 33.1338 119.686 34.5317C119.686 35.9296 120.136 37.0834 121.031 37.9927C121.925 38.902 123.054 39.354 124.417 39.354C126.166 39.354 127.565 38.5278 128.616 36.876L130.883 38.4818C130.245 39.6263 129.359 40.5261 128.216 41.1721C127.078 41.818 125.803 42.1456 124.399 42.1456C122.251 42.1916 120.406 41.4579 118.86 39.9445C117.314 38.4363 116.561 36.6225 116.607 34.5092Z" fill="#3151A1"/>
<path d="M145.811 41.8785H142.433L138.634 36.6732H136.436V41.8785H133.439V27.1389H138.946C140.487 27.1389 141.75 27.5773 142.745 28.4589C143.736 29.3357 144.232 30.4849 144.232 31.8969C144.232 32.8197 144.007 33.6506 143.553 34.389C143.103 35.1274 142.47 35.6949 141.653 36.0963L145.811 41.8785ZM136.436 29.7972V34.0196H138.946C139.643 34.0196 140.184 33.8257 140.579 33.438C140.97 33.0502 141.167 32.5381 141.167 31.8969C141.167 31.2693 140.964 30.766 140.556 30.3788C140.148 29.991 139.611 29.7972 138.946 29.7972H136.436Z" fill="#3151A1"/>
<path d="M161.023 26.8718H162V41.8791H159.003V34.0154L155.319 38.6626H154.341L150.656 34.0154V41.8791H147.66V26.8718H148.637L154.832 34.8463L161.023 26.8718Z" fill="#3151A1"/>
<path d="M156.434 6.12823C156.447 6.90371 156.172 7.58201 155.599 8.16785C155.025 8.75415 154.355 9.03533 153.593 9.02172C152.813 9.02172 152.143 8.73537 151.584 8.16315C151.024 7.59093 150.739 6.91263 150.739 6.12823C150.721 5.34383 151.005 4.66083 151.584 4.07922C152.162 3.49292 152.832 3.21174 153.593 3.22536C154.355 3.21174 155.025 3.49292 155.599 4.07922C156.172 4.66083 156.447 5.34383 156.434 6.12823ZM155.975 6.12823C155.975 5.44053 155.741 4.86362 155.278 4.39326C154.814 3.92244 154.25 3.68726 153.593 3.68726C152.937 3.68726 152.373 3.92713 151.909 4.40265C151.446 4.87817 151.212 5.45462 151.212 6.13339C151.212 6.80231 151.446 7.37453 151.909 7.84536C152.373 8.31618 152.937 8.55136 153.593 8.55136C154.25 8.55136 154.814 8.31618 155.278 7.84536C155.741 7.36514 155.975 6.79762 155.975 6.12823ZM154.158 6.39157L155.098 7.6374H154.497L153.621 6.48827H153.019V7.6374H152.515L152.501 4.60075H153.667C153.979 4.60075 154.231 4.68853 154.424 4.8594C154.617 5.03496 154.713 5.26075 154.713 5.5424C154.713 5.95783 154.529 6.23901 154.158 6.39157ZM153.006 6.04092H153.657C153.827 6.04092 153.96 5.99492 154.057 5.90713C154.153 5.81935 154.199 5.69965 154.199 5.55648C154.199 5.40439 154.153 5.27952 154.057 5.18752C153.96 5.09504 153.827 5.04904 153.657 5.04904H153.006V6.04092Z" fill="#4C4C4C"/>
</g>
<defs>
<clipPath id="clip0">
<rect width="162" height="43" fill="white"/>
</clipPath>
</defs>
</svg>
