<svg width="43" height="43" viewBox="0 0 43 43" fill="none" xmlns="http://www.w3.org/2000/svg">
<path d="M41.2123 17.9838L38.7892 17.7069C38.1147 17.6285 37.5504 17.1624 37.3483 16.5117C37.2106 16.0597 37.05 15.6119 36.8712 15.1734C36.72 14.8045 36.5594 14.4397 36.3848 14.0797C36.0959 13.4892 36.1692 12.7832 36.5683 12.2616L38.188 10.1713C38.7248 9.47471 38.6651 8.48706 38.0457 7.86414L35.2375 5.04013C34.6134 4.41252 33.6177 4.35713 32.9246 4.91104L31.0201 6.43852C30.488 6.86288 29.7584 6.93704 29.1618 6.61831C28.6754 6.35966 28.175 6.12918 27.6658 5.917C27.3722 5.79683 27.0739 5.68605 26.771 5.57996C26.1515 5.36778 25.7062 4.81856 25.6236 4.16326L25.2978 1.53265C25.1881 0.655306 24.4492 0 23.573 0H19.6035C18.718 0 17.9744 0.668919 17.8783 1.55048L17.6029 3.98723C17.5249 4.66553 17.0614 5.23306 16.4144 5.43632C15.9649 5.5748 15.5196 5.73627 15.0836 5.91606C14.7167 6.06815 14.3541 6.22963 13.996 6.40519C13.4088 6.69576 12.7068 6.62207 12.1882 6.22071L10.1096 4.59184C9.41689 4.05201 8.43478 4.11209 7.81536 4.73501L5.01139 7.55902C4.3873 8.18663 4.33222 9.1879 4.88302 9.88498L6.40193 11.8002C6.82391 12.3353 6.89766 13.069 6.58071 13.669C6.32352 14.1581 6.09433 14.6613 5.88334 15.1734C5.76384 15.4687 5.65368 15.7687 5.54819 16.0733C5.3372 16.6962 4.79107 17.144 4.13944 17.2271L1.52358 17.5548C0.65163 17.6651 0 18.4082 0 19.2897V23.2817C0 24.1722 0.665166 24.9199 1.54179 25.0166L3.96486 25.2936C4.63936 25.372 5.2037 25.8381 5.40582 26.4887C5.54352 26.9408 5.70409 27.3886 5.88287 27.827C6.03411 28.196 6.19468 28.5607 6.36926 28.9208C6.6582 29.5113 6.58491 30.2173 6.18581 30.7388L4.56608 32.8291C4.02927 33.5258 4.08902 34.5134 4.70845 35.1363L7.51661 37.9603C8.1407 38.5879 9.13635 38.6433 9.82953 38.0894L11.734 36.5619C12.2661 36.1376 12.9957 36.0634 13.5923 36.3822C14.0787 36.6408 14.579 36.8713 15.0883 37.0835C15.3819 37.2036 15.6802 37.3144 15.9831 37.4205C16.6026 37.6327 17.0479 38.1819 17.1305 38.8372L17.4563 41.4678C17.5665 42.3447 18.3054 43 19.1815 43H23.1511C24.0365 43 24.7801 42.3311 24.8763 41.4495L25.1517 39.0128C25.2296 38.3345 25.6932 37.7669 26.3401 37.5637C26.7896 37.4252 27.2349 37.2637 27.6709 37.0839C28.0378 36.9318 28.4005 36.7704 28.7585 36.5948C29.3457 36.3042 30.0478 36.3779 30.5664 36.7793L32.645 38.4082C33.3377 38.948 34.3198 38.8879 34.9392 38.265L37.7478 35.441C38.3719 34.8134 38.427 33.8121 37.8762 33.115L36.3573 31.1998C35.9353 30.6647 35.8616 29.931 36.1785 29.331C36.4357 28.8419 36.6649 28.3387 36.8712 27.8266C36.9907 27.5313 37.1009 27.2313 37.2064 26.9267C37.4174 26.3038 37.9635 25.856 38.6151 25.7729L41.231 25.4452C42.1029 25.3344 42.7546 24.5913 42.7546 23.7102V19.7183C42.7541 18.8325 42.0936 18.0852 41.2123 17.9838ZM29.3 29.4653C24.9267 33.8633 17.8325 33.8633 13.4592 29.4653C9.08594 25.0673 9.08594 17.9331 13.4592 13.5352C17.8325 9.1372 24.9267 9.1372 29.3 13.5352C33.6733 17.9331 33.6728 25.0673 29.3 29.4653Z" fill="#3151A1"/>
<path d="M26.707 20.8402V17.5543H25.0873V20.8402H22.0495V17.5543H20.4297V20.8402H17.3919V17.5543H15.7764V20.8402V22.1597V25.3996H17.3919V22.1597H20.4297V25.3996H22.0495V22.1597H25.8995H26.7257V20.8402H26.707Z" fill="#343945"/>
<path d="M26.7071 23.0644H25.0874V25.3992H26.7071V23.0644Z" fill="#343945"/>
<path d="M16.7537 16.5948H16.2029V14.2919C16.2029 14.2182 16.2029 14.1398 16.2075 14.0609L15.744 14.4487C15.7165 14.4717 15.6889 14.4811 15.6661 14.4858C15.6385 14.4904 15.6157 14.4904 15.5928 14.4858C15.5699 14.4811 15.5517 14.4721 15.533 14.4628C15.5148 14.4534 15.5008 14.4398 15.492 14.4257L15.3174 14.1858L16.2995 13.346H16.749L16.7537 16.5948Z" fill="#3151A1"/>
<path d="M21.9805 16.0776C22.0402 16.0776 22.086 16.0959 22.1228 16.1283C22.1597 16.1607 22.1732 16.2067 22.1732 16.2621V16.5944H19.9658V16.4099C19.9658 16.3729 19.9752 16.3316 19.9887 16.2945C20.0022 16.2532 20.0298 16.2161 20.062 16.1837L21.0394 15.2007C21.122 15.1176 21.1953 15.0392 21.2597 14.9609C21.3242 14.8872 21.3792 14.8088 21.4203 14.7346C21.4614 14.6609 21.4983 14.5825 21.5211 14.5083C21.544 14.4299 21.558 14.3516 21.558 14.2638C21.558 14.1854 21.5487 14.1159 21.5258 14.0605C21.5029 14.0004 21.4707 13.9497 21.4297 13.9126C21.3886 13.8713 21.3377 13.8436 21.2826 13.8202C21.2275 13.8019 21.1631 13.7878 21.0898 13.7878C21.0254 13.7878 20.9661 13.7972 20.9064 13.8155C20.8513 13.8338 20.8009 13.8615 20.7594 13.8939C20.7178 13.9263 20.6814 13.9676 20.6492 14.0093C20.6217 14.0553 20.5988 14.1018 20.5806 14.1572C20.553 14.2262 20.5208 14.2727 20.4844 14.2957C20.4433 14.3187 20.3883 14.3234 20.3098 14.3093L20.0209 14.2586C20.0438 14.1018 20.0853 13.968 20.1493 13.8479C20.2137 13.7324 20.2916 13.631 20.3878 13.5526C20.4839 13.4742 20.5941 13.4141 20.7183 13.377C20.842 13.3357 20.9755 13.317 21.1174 13.317C21.2644 13.317 21.4021 13.34 21.5258 13.3817C21.6495 13.4277 21.7555 13.4878 21.8423 13.5709C21.9296 13.6493 21.9982 13.7465 22.0486 13.8615C22.099 13.977 22.1219 14.1014 22.1219 14.2398C22.1219 14.36 22.1037 14.4708 22.0715 14.5722C22.0346 14.6736 21.9889 14.7707 21.9291 14.8627C21.8694 14.9552 21.8007 15.0425 21.7228 15.1303C21.6448 15.2181 21.5622 15.3059 21.4749 15.3932L20.75 16.141C20.8186 16.118 20.8877 16.1039 20.9563 16.095C21.025 16.0856 21.0894 16.0767 21.1538 16.0767L21.9805 16.0776Z" fill="#3151A1"/>
<path d="M16.8411 29.2207C16.8915 29.2207 16.933 29.2343 16.9648 29.2667C16.997 29.2944 17.0105 29.3357 17.0105 29.3822V29.6728H15.0649V29.5113C15.0649 29.4789 15.0696 29.4423 15.0831 29.4099C15.0967 29.3728 15.12 29.3409 15.1476 29.3132L16.0106 28.4453C16.0839 28.3716 16.1483 28.3021 16.2034 28.2331C16.2585 28.1641 16.3089 28.0993 16.3458 28.0345C16.3827 27.9697 16.4144 27.9007 16.4331 27.836C16.4513 27.7669 16.4653 27.6975 16.4653 27.6238C16.4653 27.5548 16.456 27.4947 16.4378 27.444C16.4195 27.3933 16.392 27.3473 16.3551 27.3149C16.3183 27.2778 16.2772 27.2548 16.2268 27.2365C16.1764 27.2182 16.1213 27.2088 16.0569 27.2088C15.9971 27.2088 15.9467 27.2182 15.8963 27.2318C15.8459 27.2501 15.8043 27.2731 15.7679 27.3008C15.731 27.3285 15.6993 27.3656 15.6718 27.4022C15.6442 27.4435 15.626 27.4853 15.612 27.5313C15.5891 27.5914 15.5616 27.6327 15.5247 27.6515C15.4878 27.6698 15.4374 27.6745 15.3735 27.6651L15.1163 27.6191C15.1345 27.4806 15.176 27.3604 15.2311 27.259C15.2862 27.1576 15.3595 27.0699 15.4421 27.0004C15.5247 26.9314 15.6256 26.8802 15.731 26.8436C15.8412 26.8065 15.956 26.7929 16.0844 26.7929C16.2174 26.7929 16.3369 26.8112 16.4424 26.853C16.5526 26.8901 16.6445 26.9455 16.7225 27.0192C16.8004 27.0882 16.8602 27.1759 16.9013 27.2778C16.9423 27.3797 16.9657 27.49 16.9657 27.6102C16.9657 27.7162 16.9522 27.8134 16.9199 27.9007C16.8877 27.9885 16.8467 28.0763 16.7962 28.1594C16.7458 28.2425 16.6861 28.3209 16.6128 28.3946C16.5442 28.473 16.4704 28.5466 16.3971 28.6255L15.7595 29.2808C15.8193 29.2625 15.8832 29.2484 15.943 29.2395C16.0027 29.2301 16.0625 29.2259 16.1175 29.2259H16.8425V29.2207H16.8411Z" fill="#3151A1"/>
<path d="M22.1502 28.5974V28.879C22.1502 28.9067 22.1409 28.9297 22.1227 28.948C22.1044 28.9663 22.0816 28.9757 22.0494 28.9757H21.7922V29.6723H21.3702V28.9757H20.1771C20.1449 28.9757 20.1174 28.9663 20.0898 28.9433C20.0669 28.925 20.0487 28.8973 20.0441 28.8696L19.9937 28.6251L21.338 26.8159H21.7968V28.5974H22.1502ZM21.3749 28.5974V27.6651C21.3749 27.5773 21.3795 27.4806 21.3931 27.3745L20.5118 28.6021H21.3744V28.5974H21.3749Z" fill="#3151A1"/>
<path d="M27.3496 29.6728H26.8725C26.7806 29.6728 26.7166 29.6357 26.6751 29.5667L26.0785 28.6528C26.0556 28.6204 26.0328 28.5927 26.0052 28.5791C25.9777 28.5655 25.9408 28.5561 25.8857 28.5561H25.6607V29.6728H25.1328V26.8164H26.0001C26.1929 26.8164 26.3581 26.8347 26.4958 26.8765C26.6335 26.9178 26.7484 26.9732 26.8352 27.0474C26.9225 27.1211 26.9864 27.2041 27.0326 27.306C27.0737 27.4074 27.097 27.5182 27.097 27.6384C27.097 27.7351 27.0835 27.8275 27.056 27.9106C27.0284 27.9984 26.9873 28.0721 26.9323 28.1416C26.8772 28.2106 26.8128 28.2707 26.7348 28.3261C26.6569 28.3767 26.5696 28.4185 26.4687 28.4504C26.501 28.4688 26.5332 28.4918 26.5649 28.5195C26.5924 28.5471 26.62 28.5795 26.6429 28.6162L27.3496 29.6728ZM25.9912 28.1777C26.0921 28.1777 26.1793 28.1641 26.2526 28.1406C26.3259 28.1176 26.3857 28.0805 26.4361 28.0392C26.4818 27.9932 26.5187 27.9425 26.5416 27.8825C26.5644 27.8224 26.5784 27.7534 26.5784 27.6839C26.5784 27.5407 26.5327 27.4299 26.4361 27.3515C26.3399 27.2731 26.1975 27.2361 26.0001 27.2361H25.6607V28.1819H25.9912V28.1777Z" fill="#3151A1"/>
<path d="M25.8764 14.4717C25.9497 14.4581 26.0188 14.444 26.0827 14.4393C26.1471 14.4346 26.2111 14.4299 26.2755 14.4299C26.4454 14.4299 26.5966 14.4576 26.7297 14.5083C26.858 14.559 26.9682 14.6327 27.0602 14.7205C27.1474 14.813 27.2161 14.919 27.2623 15.0387C27.308 15.1589 27.3309 15.2927 27.3309 15.4312C27.3309 15.6067 27.2987 15.7635 27.2389 15.9067C27.1792 16.0499 27.0919 16.1743 26.9864 16.2757C26.8763 16.377 26.7526 16.4554 26.6008 16.5108C26.4538 16.5662 26.2932 16.5939 26.1191 16.5939C26.0183 16.5939 25.9217 16.5845 25.8302 16.5615C25.7382 16.5385 25.6514 16.5108 25.573 16.4784C25.4904 16.4414 25.4171 16.4001 25.348 16.354C25.2794 16.308 25.2196 16.2573 25.1646 16.2062L25.3345 15.9663C25.3713 15.9156 25.4171 15.8879 25.4768 15.8879C25.5137 15.8879 25.5548 15.9015 25.5917 15.925C25.6327 15.948 25.6743 15.9757 25.7247 16.0034C25.7751 16.0311 25.8349 16.0588 25.9035 16.0818C25.9721 16.1048 26.0547 16.1189 26.1513 16.1189C26.2522 16.1189 26.3441 16.1006 26.4221 16.0682C26.5 16.0358 26.5644 15.9898 26.6148 15.9297C26.6653 15.8696 26.7068 15.8006 26.7343 15.7175C26.7619 15.6344 26.7754 15.5467 26.7754 15.45C26.7754 15.2702 26.725 15.1317 26.6195 15.0298C26.5187 14.9284 26.3623 14.8777 26.1653 14.8777C26.0094 14.8777 25.8535 14.9054 25.6883 14.9655L25.3396 14.8641L25.6103 13.2766H27.2165V13.5164C27.2165 13.5948 27.1937 13.6596 27.1432 13.7103C27.0928 13.761 27.0102 13.784 26.8907 13.784H25.9959L25.8764 14.4717Z" fill="#3151A1"/>
</svg>
