<svg width="24" height="24" viewBox="0 0 24 24" fill="none" xmlns="http://www.w3.org/2000/svg">
<rect opacity="0.01" width="24" height="24" fill="#CDEBFF"/>
<path d="M16.7186 17.7185L16.0115 18.4256L16.7186 17.7185ZM16.7186 2.28132L17.4257 2.98842L17.4257 2.98842L16.7186 2.28132ZM10.3971 19.589L9.42695 19.8316L10.3971 19.589ZM6.63259 20.5303L5.66245 20.7728L6.63259 20.5303ZM8.74113 4.9999H4V6.9999H8.74113V4.9999ZM1 7.9999V11.9999H3V7.9999H1ZM20 16.7735V3.22631H18V16.7735H20ZM16.0115 18.4256C17.4833 19.8975 20 18.855 20 16.7735H18C18 17.0732 17.6376 17.2233 17.4257 17.0114L16.0115 18.4256ZM1 11.9999C1 13.6568 2.34315 14.9999 4 14.9999V12.9999C3.44772 12.9999 3 12.5522 3 11.9999H1ZM4 4.9999C2.34315 4.9999 1 6.34304 1 7.9999H3C3 7.44761 3.44772 6.9999 4 6.9999V4.9999ZM16.0115 1.57421C13.7439 3.84178 11.754 4.9999 8.74113 4.9999V6.9999C12.4626 6.9999 14.9313 5.48279 17.4257 2.98842L16.0115 1.57421ZM17.4257 2.98842C17.6376 2.77649 18 2.92659 18 3.22631H20C20 1.14478 17.4833 0.102343 16.0115 1.57421L17.4257 2.98842ZM19 8.9999H20V6.9999H19V8.9999ZM20 10.9999H19V12.9999H20V10.9999ZM21 9.9999C21 10.5522 20.5523 10.9999 20 10.9999V12.9999C21.6569 12.9999 23 11.6568 23 9.9999H21ZM20 8.9999C20.5523 8.9999 21 9.44761 21 9.9999H23C23 8.34304 21.6569 6.9999 20 6.9999V8.9999ZM4 14.9999H5V12.9999H4V14.9999ZM5 14.9999H8.74113V12.9999H5V14.9999ZM4.02986 14.2424L5.66245 20.7728L7.60274 20.2877L5.97014 13.7574L4.02986 14.2424ZM8.74113 14.9999C8.82133 14.9999 8.90067 15.0007 8.97917 15.0024L9.02083 13.0028C8.92825 13.0009 8.83502 12.9999 8.74113 12.9999V14.9999ZM8.97917 15.0024C11.855 15.0623 13.7991 16.2132 16.0115 18.4256L17.4257 17.0114C14.9992 14.5849 12.5924 13.0772 9.02083 13.0028L8.97917 15.0024ZM11.3672 19.3464L9.97012 13.76L8.02988 14.2452L9.42695 19.8316L11.3672 19.3464ZM8.51485 22.9999C10.4277 22.9999 11.8313 21.2021 11.3672 19.3464L9.42695 19.8316C9.57535 20.425 9.12654 20.9999 8.51485 20.9999V22.9999ZM5.66245 20.7728C5.98967 22.0817 7.1657 22.9999 8.51485 22.9999V20.9999C8.08343 20.9999 7.70737 20.7063 7.60274 20.2877L5.66245 20.7728Z" fill="#A2A8B8"/>
</svg>
