<svg width="32" height="32" viewBox="0 0 32 32" fill="none" xmlns="http://www.w3.org/2000/svg">
<circle cx="16" cy="16" r="16" fill="#F3F3F3"/>
<path fill-rule="evenodd" clip-rule="evenodd" d="M9.32005 9.9239C9.287 9.59047 9.56344 9.25 9.99986 9.25H12.6687C12.9915 9.25 13.2781 9.45657 13.3802 9.76283L14.2452 12.3577C14.335 12.6272 14.2649 12.9243 14.064 13.1252L13.6397 13.5495C13.1517 14.0375 13.0474 14.816 13.4457 15.4157C14.3266 16.7421 15.1526 17.5627 16.571 18.533C17.1707 18.9432 17.9624 18.8482 18.4593 18.3512L18.8747 17.9359C19.0755 17.735 19.3727 17.6648 19.6422 17.7547L22.237 18.6196C22.5433 18.7217 22.7499 19.0083 22.7499 19.3311V22C22.7499 22.4364 22.4094 22.7129 22.076 22.6798C15.3433 22.0123 9.98756 16.6565 9.32005 9.9239Z" fill="#6D778E"/>
</svg>
