<svg width="16" height="16" viewBox="0 0 16 16" fill="none" xmlns="http://www.w3.org/2000/svg">
<mask id="mask0" mask-type="alpha" maskUnits="userSpaceOnUse" x="4" y="4" width="8" height="8">
<path fill-rule="evenodd" clip-rule="evenodd" d="M8.375 7.625V4.625H7.625V7.625H4.625V8.375H7.625V11.375H8.375V8.375H11.375V7.625H8.375Z" fill="white"/>
</mask>
<g mask="url(#mask0)">
</g>
<g clip-path="url(#clip0)">
<path d="M2.7199 6.64998L3.07741 6.30042C2.98334 6.20421 2.85446 6.14998 2.7199 6.14998C2.58535 6.14998 2.45647 6.20421 2.3624 6.30042L2.7199 6.64998ZM13.2799 9.34998L12.9224 9.69953C13.0165 9.79574 13.1453 9.84998 13.2799 9.84998C13.4145 9.84998 13.5433 9.79574 13.6374 9.69953L13.2799 9.34998ZM14.9574 8.34953C15.1505 8.15209 15.1469 7.83553 14.9495 7.64247C14.752 7.44942 14.4355 7.45297 14.2424 7.65042L14.9574 8.34953ZM12.3174 7.65042C12.1243 7.45297 11.8078 7.44942 11.6103 7.64247C11.4129 7.83553 11.4093 8.15209 11.6024 8.34953L12.3174 7.65042ZM3.6824 8.34953C3.87545 8.54698 4.19202 8.55054 4.38946 8.35748C4.5869 8.16442 4.59046 7.84786 4.39741 7.65042L3.6824 8.34953ZM1.0424 7.65042C0.849343 7.84786 0.8529 8.16442 1.05034 8.35748C1.24779 8.55054 1.56435 8.54698 1.75741 8.34953L1.0424 7.65042ZM3.68809 4.07069C3.50623 4.2785 3.52727 4.59438 3.73507 4.77624C3.94288 4.9581 4.25876 4.93706 4.44062 4.72926L3.68809 4.07069ZM12.3117 11.9293C12.4936 11.7215 12.4725 11.4056 12.2647 11.2237C12.0569 11.0419 11.741 11.0629 11.5592 11.2707L12.3117 11.9293ZM7.9999 12.9C5.37051 12.9 3.2199 10.7168 3.2199 7.99998H2.2199C2.2199 11.2478 4.79716 13.9 7.9999 13.9V12.9ZM7.9999 3.09998C10.6293 3.09998 12.7799 5.28313 12.7799 7.99998H13.7799C13.7799 4.75215 11.2026 2.09998 7.9999 2.09998V3.09998ZM3.2199 7.99998V6.64998H2.2199V7.99998H3.2199ZM12.7799 7.99998V9.34998H13.7799V7.99998H12.7799ZM13.6374 9.69953L14.9574 8.34953L14.2424 7.65042L12.9224 9.00042L13.6374 9.69953ZM13.6374 9.00042L12.3174 7.65042L11.6024 8.34953L12.9224 9.69953L13.6374 9.00042ZM2.3624 6.99953L3.6824 8.34953L4.39741 7.65042L3.07741 6.30042L2.3624 6.99953ZM2.3624 6.30042L1.0424 7.65042L1.75741 8.34953L3.07741 6.99953L2.3624 6.30042ZM4.44062 4.72926C5.31792 3.72678 6.58837 3.09998 7.9999 3.09998V2.09998C6.28392 2.09998 4.7444 2.86367 3.68809 4.07069L4.44062 4.72926ZM11.5592 11.2707C10.6819 12.2732 9.41144 12.9 7.9999 12.9V13.9C9.71589 13.9 11.2554 13.1363 12.3117 11.9293L11.5592 11.2707Z" fill="#3151A1"/>
</g>
<defs>
<clipPath id="clip0">
<rect x="0.799805" y="0.799988" width="14.4" height="14.4" fill="white"/>
</clipPath>
</defs>
</svg>
