<svg width="24" height="24" viewBox="0 0 24 24" fill="none" xmlns="http://www.w3.org/2000/svg">
<path d="M2 4C2 3.44772 1.55228 3 1 3C0.447715 3 0 3.44772 0 4H2ZM23 21C23.5523 21 24 20.5523 24 20C24 19.4477 23.5523 19 23 19V21ZM4.29289 13.2929C3.90237 13.6834 3.90237 14.3166 4.29289 14.7071C4.68342 15.0976 5.31658 15.0976 5.70711 14.7071L4.29289 13.2929ZM14.2929 11.2929L15 10.5858L15 10.5858L14.2929 11.2929ZM15.7071 11.2929L15 10.5858L15 10.5858L15.7071 11.2929ZM23 4H24C24 3.44772 23.5523 3 23 3V4ZM22 8C22 8.55228 22.4477 9 23 9C23.5523 9 24 8.55228 24 8H22ZM19 3C18.4477 3 18 3.44772 18 4C18 4.55228 18.4477 5 19 5V3ZM0 4V18H2V4H0ZM3 21H23V19H3V21ZM5.70711 14.7071L11 9.41421L9.58579 8L4.29289 13.2929L5.70711 14.7071ZM11 9.41421L13.5858 12L15 10.5858L12.4142 8L11 9.41421ZM16.4142 12L23.7071 4.70711L22.2929 3.29289L15 10.5858L16.4142 12ZM22 4V8H24V4H22ZM23 3H19V5H23V3ZM13.5858 12C14.3668 12.7811 15.6332 12.781 16.4142 12L15 10.5858L15 10.5858L13.5858 12ZM11 9.41421L12.4142 8C11.6332 7.21895 10.3668 7.21895 9.58579 8L11 9.41421ZM0 18C0 19.6569 1.34315 21 3 21V19C2.44772 19 2 18.5523 2 18H0Z" fill="#A2A8B8"/>
</svg>
