<svg width="29" height="29" viewBox="0 0 29 29" fill="none" xmlns="http://www.w3.org/2000/svg">
<path d="M0 14.5C0 6.49187 6.49187 0 14.5 0C22.5081 0 29 6.49187 29 14.5C29 22.5081 22.5081 29 14.5 29C6.49187 29 0 22.5081 0 14.5Z" fill="#19CD9D"/>
<path d="M15.7499 13.2497L12.4316 16.568M12.4316 16.568C12.5651 16.7015 12.6662 16.8673 12.7228 17.0533L13.6465 20.0882C13.964 21.1315 15.4121 21.2075 15.8371 20.2031L19.8787 10.6501C20.287 9.685 19.3147 8.71273 18.3497 9.12103L8.79668 13.1627C7.79225 13.5876 7.8682 15.0357 8.91158 15.3533L11.9464 16.2769C12.1324 16.3335 12.2982 16.4346 12.4316 16.568Z" stroke="white" stroke-linecap="round"/>
</svg>
