<svg width="24" height="24" viewBox="0 0 24 24" fill="none" xmlns="http://www.w3.org/2000/svg">
<rect opacity="0.01" width="24" height="24" fill="#CDEBFF"/>
<path d="M16.2149 5.19904C16.0732 5.11105 15.9286 5.02736 15.7812 4.94816C15.1278 4.5971 14.6132 4.00052 14.5067 3.2665L14.4118 2.61342C14.2907 1.77864 13.6593 1.09179 12.818 1.02995C12.548 1.0101 12.2752 1 12.0001 1C11.725 1 11.4523 1.0101 11.1822 1.02994C10.341 1.09177 9.70961 1.77863 9.58842 2.61341L9.49362 3.2665C9.38706 4.00052 8.87244 4.5971 8.21906 4.94816C8.07166 5.02736 7.92702 5.11105 7.78534 5.19904C7.15503 5.5905 6.38083 5.73803 5.69163 5.46321L5.07691 5.21808C4.29438 4.90603 3.38494 5.10828 2.90983 5.80398C2.60224 6.25436 2.32726 6.72878 2.08828 7.22383C1.72193 7.98272 2.00149 8.87186 2.66318 9.39367L3.1854 9.8055C3.76714 10.2643 4.02699 11.0071 4.00404 11.7476C4.00145 11.8314 4.00014 11.9156 4.00014 12C4.00014 12.0844 4.00145 12.1686 4.00404 12.2524C4.02699 12.9929 3.76714 13.7357 3.1854 14.1945L2.66318 14.6063C2.00149 15.1281 1.72193 16.0173 2.08828 16.7762C2.32726 17.2712 2.60225 17.7456 2.90983 18.196C3.38494 18.8917 4.29438 19.094 5.07691 18.7819L5.69164 18.5368C6.38083 18.262 7.15503 18.4095 7.78534 18.801C7.92702 18.8889 8.07166 18.9726 8.21906 19.0518C8.87244 19.4029 9.38706 19.9995 9.49362 20.7335L9.58843 21.3866C9.70961 22.2214 10.341 22.9082 11.1822 22.9701C11.4523 22.9899 11.725 23 12.0001 23C12.2752 23 12.548 22.9899 12.8181 22.97C13.6593 22.9082 14.2907 22.2214 14.4119 21.3866L14.5067 20.7335C14.6132 19.9995 15.1278 19.4029 15.7812 19.0518C15.9286 18.9726 16.0733 18.8889 16.2149 18.801C16.8452 18.4095 17.6194 18.262 18.3086 18.5368L18.9233 18.7819C19.7058 19.0939 20.6153 18.8917 21.0904 18.196C21.3979 17.7456 21.6729 17.2712 21.9119 16.7761C22.2783 16.0172 21.9987 15.1281 21.337 14.6063L20.8149 14.1945C20.2331 13.7357 19.9733 12.9929 19.9962 12.2524C19.9988 12.1686 20.0001 12.0844 20.0001 12C20.0001 11.9156 19.9988 11.8314 19.9962 11.7476C19.9733 11.0071 20.2331 10.2643 20.8149 9.8055L21.337 9.39374C21.9987 8.87193 22.2783 7.98279 21.9119 7.22391C21.6729 6.72885 21.3979 6.25442 21.0904 5.80402C20.6152 5.10832 19.7058 4.90607 18.9233 5.21811L18.3086 5.46321C17.6194 5.73803 16.8452 5.5905 16.2149 5.19904Z" stroke="#A2A8B8" stroke-width="2" stroke-linecap="round"/>
<path d="M16 12C16 14.2091 14.2091 16 12 16C9.79086 16 8 14.2091 8 12C8 9.79086 9.79086 8 12 8C14.2091 8 16 9.79086 16 12Z" stroke="#A2A8B8" stroke-width="2" stroke-linecap="round"/>
</svg>
