<svg width="30" height="30" viewBox="0 0 30 30" fill="none" xmlns="http://www.w3.org/2000/svg">
<path d="M25.6666 23.5186V16.6667C25.6666 10.2233 20.4433 5 14 5V5C7.55666 5 2.33331 10.2233 2.33331 16.6667V23.5186" stroke="#A2A8B8" stroke-width="2"/>
<path d="M14.1739 22.8624C17.4585 22.8624 20.1212 20.2456 20.1212 17.0176C20.1212 13.7897 17.4585 11.1729 14.1739 11.1729C10.8893 11.1729 8.22667 13.7897 8.22667 17.0176C8.22667 18.1377 8.54724 19.1842 9.10314 20.0733L8.1677 22.9204C7.95622 23.4053 8.50508 23.0792 8.99854 22.8713L11.0647 22.0011C11.9694 22.5474 13.0342 22.8624 14.1739 22.8624Z" fill="#3151A1"/>
<path d="M1 17.9235C1 16.9294 1.80589 16.1235 2.8 16.1235C3.79411 16.1235 4.6 16.9294 4.6 17.9235V22.2001C4.6 23.1942 3.79411 24.0001 2.8 24.0001C1.80589 24.0001 1 23.1942 1 22.2001V17.9235Z" fill="white" stroke="#A2A8B8" stroke-width="2"/>
<path d="M23.4 17.9235C23.4 16.9294 24.2059 16.1235 25.2 16.1235C26.1941 16.1235 27 16.9294 27 17.9235V22.2001C27 23.1942 26.1941 24.0001 25.2 24.0001C24.2059 24.0001 23.4 23.1942 23.4 22.2001V17.9235Z" fill="white" stroke="#A2A8B8" stroke-width="2"/>
</svg>
