<svg width="24" height="24" viewBox="0 0 24 24" fill="none" xmlns="http://www.w3.org/2000/svg">
<rect opacity="0.01" width="24" height="24" fill="#CDEBFF"/>
<path d="M10.7143 4.57153C10.162 4.57153 9.71429 5.01925 9.71429 5.57153C9.71429 6.12382 10.162 6.57153 10.7143 6.57153V4.57153ZM21 6.57153C21.5523 6.57153 22 6.12382 22 5.57153C22 5.01925 21.5523 4.57153 21 4.57153V6.57153ZM10.7143 11.0001C10.162 11.0001 9.71429 11.4478 9.71429 12.0001C9.71429 12.5524 10.162 13.0001 10.7143 13.0001V11.0001ZM21 13.0001C21.5523 13.0001 22 12.5524 22 12.0001C22 11.4478 21.5523 11.0001 21 11.0001V13.0001ZM10.7143 17.4287C10.162 17.4287 9.71429 17.8764 9.71429 18.4287C9.71429 18.981 10.162 19.4287 10.7143 19.4287V17.4287ZM21 19.4287C21.5523 19.4287 22 18.981 22 18.4287C22 17.8764 21.5523 17.4287 21 17.4287V19.4287ZM10.7143 6.57153H21V4.57153H10.7143V6.57153ZM10.7143 13.0001H21V11.0001H10.7143V13.0001ZM10.7143 19.4287H21V17.4287H10.7143V19.4287Z" fill="#A2A8B8"/>
<circle cx="5.57143" cy="5.57143" r="1.57143" stroke="#A2A8B8" stroke-width="2"/>
<circle cx="5.57143" cy="11.9999" r="1.57143" stroke="#A2A8B8" stroke-width="2"/>
<circle cx="5.57143" cy="18.4286" r="1.57143" stroke="#A2A8B8" stroke-width="2"/>
</svg>
