<svg width="122" height="119" viewBox="0 0 122 119" fill="none" xmlns="http://www.w3.org/2000/svg">
<rect y="1" width="122" height="118" rx="59" fill="#DBE5FF"/>
<mask id="mask0" mask-type="alpha" maskUnits="userSpaceOnUse" x="0" y="0" width="122" height="118">
<rect width="122" height="118" rx="59" fill="#C4C4C4"/>
</mask>
<g mask="url(#mask0)">
<path fill-rule="evenodd" clip-rule="evenodd" d="M50.3775 74.427L51.2619 73.5031L52.4634 73.9341C60.3593 76.765 69.9491 74.9666 78.3162 69.885C86.097 65.1589 92.7221 57.6434 95.8774 48.8171C93.7838 48.0567 91.3619 47.7564 89.0626 48.1009C79.5541 49.852 69.8176 49.9722 60.4134 48.4903C56.7536 53.2928 56.6515 57.8361 56.8621 64.0439L52.9245 64.1835C52.7292 58.4231 52.8928 52.9664 56.1746 47.7067C54.8105 47.4181 53.455 47.096 52.1107 46.7386C47.3666 50.4235 46.0981 54.7795 44.703 60.8173L40.8653 59.9315C41.8011 55.8802 42.8758 52.03 45.1003 48.6107C45.956 47.295 46.9838 46.0441 48.2375 44.8693C47.8832 44.0627 47.5438 43.2433 47.2192 42.4124C42.6365 44.0153 39.7781 47.2232 37.3659 50.8436L34.091 48.6526C36.7162 44.7126 40.31 40.6899 45.8916 38.7004C45.0377 36.0886 44.3209 33.3861 43.7283 30.6312C42.4593 25.505 41.6893 14.3512 41.6893 14.3512C41.3297 5.81346 44.2182 -16.8128 45.8395 -24.1407C45.8395 -24.1407 17.9296 -33.1119 5.18094 -24.1407C3.6727 -23.0793 3.06881 5.95723 3.06881 5.95723C6.15834 13.5065 12.7294 34.3594 14.6436 42.4632L17.7636 57.4107C19.1639 64.8698 20.3984 72.3152 21.7232 79.546L21.7537 79.4802C25.6155 81.2598 31.0896 81.9034 36.4241 81.0923C41.7583 80.2816 46.9156 78.0433 50.3775 74.427Z" fill="#3151A1"/>
<mask id="mask1" mask-type="alpha" maskUnits="userSpaceOnUse" x="21" y="75" width="29" height="22">
<path fill-rule="evenodd" clip-rule="evenodd" d="M24.6914 75.4822L49.1194 81.5728L45.4662 96.2246L21.0383 90.134L24.6914 75.4822Z" fill="white"/>
</mask>
<g mask="url(#mask1)">
<path fill-rule="evenodd" clip-rule="evenodd" d="M37.0093 84.9983C31.983 85.7624 26.8902 85.4408 22.5608 84.0277L22.5607 84.0279C23.004 86.3275 23.4625 88.6008 23.9451 90.84C30.2494 92.6484 39.6026 93.02 47.2909 88.9064L47.9003 81.2688C44.572 83.2022 40.8071 84.421 37.0093 84.9983Z" fill="#3151A1"/>
</g>
<path fill-rule="evenodd" clip-rule="evenodd" d="M47.9365 81.2484L47.9368 81.2483L47.9361 81.2481L47.9365 81.2484Z" fill="#3151A1"/>
<mask id="mask2" mask-type="alpha" maskUnits="userSpaceOnUse" x="47" y="40" width="56" height="53">
<path fill-rule="evenodd" clip-rule="evenodd" d="M58.0981 40.4925L102.505 51.5644L92.3107 92.4532L47.9034 81.3812L58.0981 40.4925Z" fill="white"/>
</mask>
<g mask="url(#mask2)">
<path fill-rule="evenodd" clip-rule="evenodd" d="M99.3555 50.7791C95.7795 60.2969 88.6804 68.2055 80.3533 73.2632C71.5798 78.5923 61.3457 80.7979 52.2987 78.0269C50.9704 79.265 49.5016 80.3357 47.9365 81.2485L50.233 81.929C62.504 85.5668 75.9577 81.8672 86.6201 73.7889C92.7219 69.1661 97.8576 63.1311 101.307 56.3176C101.995 54.2107 101.1 52.2639 99.3555 50.7791Z" fill="#3151A1"/>
</g>
</g>
</svg>
