<svg width="122" height="118" viewBox="0 0 122 118" fill="none" xmlns="http://www.w3.org/2000/svg">
<rect width="122" height="118" rx="59" fill="#DBE5FF"/>
<mask id="mask0" mask-type="alpha" maskUnits="userSpaceOnUse" x="0" y="0" width="122" height="118">
<rect width="122" height="118" rx="59" fill="#DBE5FF"/>
</mask>
<g mask="url(#mask0)">
<path fill-rule="evenodd" clip-rule="evenodd" d="M68.5369 71.283C53.6265 90.9519 82.924 104.103 83.7495 75.3483L68.5367 71.283H68.5369ZM51.3048 86.2839L36.0925 90.3493C36.9178 119.104 66.2152 105.953 51.3048 86.2839ZM80.1591 22.001C70.5035 21.8733 66.4925 34.5114 66.8834 47.9934C69.7843 53.6734 70.2767 59.7366 69.7849 65.0679L84.7349 69.0635L84.7352 69.0637C95.0497 55.8424 96.5023 25.9819 83.3385 22.4637C82.2173 22.164 81.1583 22.0141 80.1593 22.001H80.1591ZM39.6821 37.0014C38.6829 37.0146 37.6239 37.1644 36.5029 37.4641C23.3389 40.9825 24.7915 70.8428 35.1062 84.0641L35.1065 84.064L50.0564 80.0683C49.5647 74.737 50.0567 68.6739 52.9578 62.9937C53.3492 49.512 49.338 36.8739 39.6822 37.0012L39.6821 37.0014Z" fill="#3151A1"/>
</g>
</svg>
