<svg width="16" height="15" viewBox="0 0 16 15" fill="none" xmlns="http://www.w3.org/2000/svg">
<path d="M5.16634 1C5.16634 0.723858 4.94248 0.5 4.66634 0.5C4.3902 0.5 4.16634 0.723858 4.16634 1H5.16634ZM11.833 1C11.833 0.723858 11.6092 0.5 11.333 0.5C11.0569 0.5 10.833 0.723858 10.833 1H11.833ZM2.66634 2.83333H4.66634V1.83333H2.66634V2.83333ZM4.66634 2.83333H11.333V1.83333H4.66634V2.83333ZM11.333 2.83333H13.333V1.83333H11.333V2.83333ZM13.333 13.8333H2.66634V14.8333H13.333V13.8333ZM1.83301 13V5.66667H0.833008V13H1.83301ZM1.83301 5.66667V3.66667H0.833008V5.66667H1.83301ZM14.1663 3.66667V5.66667H15.1663V3.66667H14.1663ZM14.1663 5.66667V13H15.1663V5.66667H14.1663ZM1.33301 6.16667H14.6663V5.16667H1.33301V6.16667ZM5.16634 2.33333V1H4.16634V2.33333H5.16634ZM11.833 2.33333V1H10.833V2.33333H11.833ZM2.66634 13.8333C2.2061 13.8333 1.83301 13.4602 1.83301 13H0.833008C0.833008 14.0125 1.65382 14.8333 2.66634 14.8333V13.8333ZM13.333 14.8333C14.3455 14.8333 15.1663 14.0125 15.1663 13H14.1663C14.1663 13.4602 13.7932 13.8333 13.333 13.8333V14.8333ZM13.333 2.83333C13.7932 2.83333 14.1663 3.20643 14.1663 3.66667H15.1663C15.1663 2.65414 14.3455 1.83333 13.333 1.83333V2.83333ZM2.66634 1.83333C1.65382 1.83333 0.833008 2.65414 0.833008 3.66667H1.83301C1.83301 3.20643 2.2061 2.83333 2.66634 2.83333V1.83333Z" fill="#A2A8B8"/>
</svg>
