<svg width="21" height="21" viewBox="0 0 21 21" fill="none" xmlns="http://www.w3.org/2000/svg">
<path d="M18.5132 15.3952L18.0536 15.5922L17.9516 15.3541L18.0872 15.1334L18.5132 15.3952ZM19.9207 18.6794L19.4611 18.8764L19.4611 18.8764L19.9207 18.6794ZM15.3952 18.5132L15.1334 18.0872L15.3541 17.9516L15.5922 18.0536L15.3952 18.5132ZM18.6794 19.9207L18.4825 20.3803L18.4825 20.3803L18.6794 19.9207ZM1.5 10.4532C1.5 15.3979 5.50847 19.4063 10.4532 19.4063V20.4063C4.95618 20.4063 0.499996 15.9501 0.499996 10.4532H1.5ZM19.4063 10.4532C19.4063 5.50847 15.3979 1.5 10.4532 1.5V0.5C15.9501 0.5 20.4063 4.95618 20.4063 10.4532H19.4063ZM10.4532 1.5C5.50847 1.5 1.5 5.50847 1.5 10.4532H0.499996C0.499996 4.95618 4.95618 0.5 10.4532 0.5V1.5ZM18.9727 15.1983L20.3803 18.4825L19.4611 18.8764L18.0536 15.5922L18.9727 15.1983ZM18.0872 15.1334C18.9238 13.7719 19.4063 12.1697 19.4063 10.4532H20.4063C20.4063 12.3597 19.8698 14.1425 18.9392 15.657L18.0872 15.1334ZM10.4532 19.4063C12.1697 19.4063 13.7719 18.9238 15.1334 18.0872L15.657 18.9392C14.1425 19.8698 12.3597 20.4063 10.4532 20.4063V19.4063ZM18.4825 20.3803L15.1983 18.9727L15.5922 18.0536L18.8764 19.4611L18.4825 20.3803ZM20.3803 18.4825C20.8942 19.6817 19.6817 20.8942 18.4825 20.3803L18.8764 19.4611C19.2459 19.6195 19.6195 19.2459 19.4611 18.8764L20.3803 18.4825Z" fill="#3151A1"/>
</svg>
