<svg width="122" height="118" viewBox="0 0 122 118" fill="none" xmlns="http://www.w3.org/2000/svg">
<rect width="122" height="118" rx="59" fill="#DBE5FF"/>
<mask id="mask0" mask-type="alpha" maskUnits="userSpaceOnUse" x="0" y="0" width="122" height="118">
<rect width="122" height="118" rx="59" fill="#DBE5FF"/>
</mask>
<g mask="url(#mask0)">
<path fill-rule="evenodd" clip-rule="evenodd" d="M69.8187 69.355C65.9569 69.355 62.8264 72.3905 62.8264 76.1352C62.8264 79.8798 65.9569 82.9153 69.8187 82.9153C73.6804 82.9153 76.8109 79.8798 76.8109 76.1352C76.8109 72.3905 73.6804 69.355 69.8187 69.355ZM-23.411 69.355C-27.2725 69.355 -30.4032 72.3905 -30.4032 76.1352C-30.4032 79.8798 -27.2725 82.9153 -23.411 82.9153C-19.5493 82.9153 -16.4188 79.8798 -16.4188 76.1352C-16.4188 72.3905 -19.5493 69.355 -23.411 69.355ZM14.8496 37.4846C22.1367 37.5589 32.9222 38.2443 40.3427 41.4225C43.8976 43.0187 50.5904 46.7545 55.0663 50.0531L53.2165 53.0293C41.0658 52.4985 24.8724 51.8419 18.226 51.1142L14.8493 37.4846H14.8496ZM4.76186 37.3861C6.50933 37.3985 8.1123 37.468 9.42742 37.6149L11.5504 51.2747C-0.519897 49.8359 -12.8195 48.5448 -19.3211 43.5057C-19.2194 41.9519 -17.002 39.7029 -14.5125 38.8427C-13.1024 38.3559 -2.81014 37.3324 4.76215 37.3861H4.76186ZM9.77208 34.0005C1.42685 33.979 -7.97303 34.6302 -18.9127 36.2634C-20.2039 36.4385 -32.6439 43.3196 -35.9982 48.0688C-39.3521 52.8183 -40.4994 61.8591 -40.4994 61.8591C-41.4049 65.5611 -40.8549 71.6805 -40.6023 72.2754C-40.2611 73.5637 -38.3356 74.6451 -35.028 75.4265C-34.6423 69.478 -29.5583 64.8424 -23.411 64.835C-16.9746 64.835 -11.7573 69.8947 -11.7573 76.1353C-11.7614 76.6339 -11.7995 77.1312 -11.8715 77.6247C-11.6996 77.627 -11.5044 77.6318 -11.3412 77.6334L58.3672 78.1954C58.2352 77.5162 58.1679 76.8266 58.1653 76.1353C58.1653 69.8947 63.3832 64.835 69.819 64.835C76.2556 64.835 81.4727 69.8947 81.4727 76.1353C81.4727 76.889 81.3952 77.6411 81.2408 78.3796L99.3585 78.5256C99.7422 72.0811 101.357 65.3128 97.3118 59.6767C95.7223 57.4619 88.0096 53.4511 68.4602 50.4503C58.3599 45.5316 48.5023 39.9552 37.7672 36.7592C29.4902 35.1673 20.5025 34.0279 9.77208 34.0005Z" fill="#3151A1"/>
</g>
</svg>
